M48
;Layer_Color=9474304
;FILE_FORMAT=2:4
INCH,TZ
;TYPE=PLATED
T1F00S00C0.0118
T2F00S00C0.0402
T3F00S00C0.0512
;TYPE=NON_PLATED
T4F00S00C0.1083
%
T01
X4449Y2441
X6102Y6732
X6654
Y7362
X6102
X7480Y7165
Y7677
X8071
Y7165
X8661
Y7677
X9764Y7323
Y8150
X9370Y8543
X10709Y8150
Y7323
X9291Y6614
X9488Y5827
X9016
Y5276
X9488
Y4764
X9016
X8228Y5827
X6929Y8465
T02
X720Y2563
X1720
X14421
X15421
Y3563
X14421
Y4563
X15421
Y5563
X14421
Y6563
X15421
Y7563
X14421
Y8563
X15421
Y9563
X14421
X1720
Y8563
Y7563
Y6563
Y5563
Y4563
Y3563
X720
Y4563
Y5563
Y6563
Y7563
Y8563
Y9563
T03
X9252Y10472
X11220
T04
X1220Y551
X14921
Y11732
X1220Y11732
M30
