M48
;Layer_Color=9474304
;FILE_FORMAT=2:4
INCH,TZ
;TYPE=PLATED
T1F00S00C0.0079
T2F00S00C0.0118
T3F00S00C0.0354
T4F00S00C0.0402
;TYPE=NON_PLATED
T5F00S00C0.1083
%
T01
X4331Y3327
Y3760
Y4193
X4764
Y3760
Y3327
T02
X3661Y1752
Y2126
X4252
X4843Y2146
X5433
X6457Y1339
X7598Y1260
X7465Y1930
X7520Y2992
Y3465
X6949Y3780
X6614Y3465
Y2992
X6339Y4173
X9631Y4327
X9951Y3898
X10394Y2402
X10508Y1925
X12008Y1142
X11654Y-39
X9272Y-335
X8278Y1457
X13228Y1496
X13071Y2638
X13195Y2927
X11850Y4429
X11811Y5236
X11890Y5984
X12598Y6790
X12461Y7776
X10394Y6063
X10000Y4764
X7539Y5719
X5453Y5551
X4862
X5827Y6575
X7205Y10685
X7756
X7480Y10961
X7205Y11236
X7480Y11512
X7205Y11787
X7756
X8031Y11512
X7756Y11236
X8031Y10961
X6929
Y11512
X5201Y13272
X10984Y12756
X10965Y12392
X12067Y14252
X3904Y14276
X4016Y13622
X2635Y11575
X2677Y11220
X3681Y5531
X4272
T03
X1634Y0
X2421
X3209
T04
X720Y3980
X1720
X14421
X15421
Y4980
Y5980
Y6980
Y7980
Y8980
Y9980
Y10980
X14421
Y9980
Y8980
Y7980
Y6980
Y5980
Y4980
X1720
Y5980
Y6980
Y7980
Y8980
Y9980
Y10980
X720
Y9980
Y8980
Y7980
Y6980
Y5980
Y4980
T05
X1220Y1969
X14921
Y13150
X1220Y13150
M30
