G04*
G04 #@! TF.GenerationSoftware,Altium Limited,Altium Designer,22.3.1 (43)*
G04*
G04 Layer_Color=128*
%FSLAX25Y25*%
%MOIN*%
G70*
G04*
G04 #@! TF.SameCoordinates,2B40A856-6C47-4DC4-A76D-FC4A54A6A395*
G04*
G04*
G04 #@! TF.FilePolarity,Positive*
G04*
G01*
G75*
%ADD20R,0.06127X0.05924*%
%ADD28R,0.05924X0.06127*%
%ADD54R,0.04528X0.04528*%
%ADD55R,0.04528X0.03937*%
%ADD56R,0.04182X0.04553*%
%ADD57R,0.02410X0.06524*%
G04:AMPARAMS|DCode=58|XSize=65.24mil|YSize=24.1mil|CornerRadius=12.05mil|HoleSize=0mil|Usage=FLASHONLY|Rotation=270.000|XOffset=0mil|YOffset=0mil|HoleType=Round|Shape=RoundedRectangle|*
%AMROUNDEDRECTD58*
21,1,0.06524,0.00000,0,0,270.0*
21,1,0.04114,0.02410,0,0,270.0*
1,1,0.02410,0.00000,-0.02057*
1,1,0.02410,0.00000,0.02057*
1,1,0.02410,0.00000,0.02057*
1,1,0.02410,0.00000,-0.02057*
%
%ADD58ROUNDEDRECTD58*%
%ADD59R,0.05709X0.04528*%
%ADD60R,0.05512X0.04134*%
%ADD61R,0.07874X0.03150*%
D20*
X32480Y139373D02*
D03*
Y132280D02*
D03*
D28*
X83461Y44488D02*
D03*
X90554D02*
D03*
X83461Y55118D02*
D03*
X90554D02*
D03*
D54*
X124311Y23622D02*
D03*
X115059D02*
D03*
X124311Y32283D02*
D03*
X115059D02*
D03*
D55*
X105217Y44488D02*
D03*
X114469D02*
D03*
D56*
X97244Y99800D02*
D03*
Y106499D02*
D03*
X105905Y99800D02*
D03*
Y106499D02*
D03*
D57*
X120669Y102758D02*
D03*
X128150Y128344D02*
D03*
D58*
Y102758D02*
D03*
X124409Y94880D02*
D03*
X120669Y128344D02*
D03*
X124409Y136223D02*
D03*
D59*
X69488Y42618D02*
D03*
Y49508D02*
D03*
D60*
X32480Y122638D02*
D03*
Y115157D02*
D03*
X120472Y111811D02*
D03*
Y119291D02*
D03*
X128347D02*
D03*
Y111811D02*
D03*
D61*
X108071Y-4921D02*
D03*
Y11614D02*
D03*
X127559Y-4921D02*
D03*
Y11614D02*
D03*
M02*
