G04*
G04 #@! TF.GenerationSoftware,Altium Limited,Altium Designer,22.3.1 (43)*
G04*
G04 Layer_Physical_Order=2*
G04 Layer_Color=36540*
%FSLAX25Y25*%
%MOIN*%
G70*
G04*
G04 #@! TF.SameCoordinates,2B40A856-6C47-4DC4-A76D-FC4A54A6A395*
G04*
G04*
G04 #@! TF.FilePolarity,Positive*
G04*
G01*
G75*
%ADD48C,0.06024*%
%ADD52C,0.02362*%
%ADD53C,0.01968*%
G36*
X159252Y136811D02*
Y787D01*
X149016Y-9449D01*
X12205D01*
X1969Y787D01*
Y135433D01*
X13386Y146850D01*
X149213D01*
X159252Y136811D01*
D02*
G37*
%LPC*%
G36*
X40549Y138189D02*
X39766D01*
X39042Y137889D01*
X38489Y137336D01*
X38189Y136612D01*
Y135829D01*
X38489Y135105D01*
X39042Y134552D01*
X39766Y134252D01*
X40549D01*
X41273Y134552D01*
X41826Y135105D01*
X42126Y135829D01*
Y136612D01*
X41826Y137336D01*
X41273Y137889D01*
X40549Y138189D01*
D02*
G37*
G36*
X52399Y134685D02*
X51616D01*
X50893Y134385D01*
X50339Y133832D01*
X50039Y133108D01*
Y132325D01*
X50339Y131602D01*
X50893Y131048D01*
X51616Y130748D01*
X52399D01*
X53123Y131048D01*
X53677Y131602D01*
X53976Y132325D01*
Y133108D01*
X53677Y133832D01*
X53123Y134385D01*
X52399Y134685D01*
D02*
G37*
G36*
X12815Y137697D02*
X11594D01*
X10396Y137459D01*
X9268Y136991D01*
X8252Y136313D01*
X7388Y135449D01*
X6710Y134433D01*
X6242Y133305D01*
X6004Y132107D01*
Y130885D01*
X6242Y129687D01*
X6710Y128559D01*
X7388Y127543D01*
X8252Y126680D01*
X9268Y126001D01*
X10396Y125533D01*
X11594Y125295D01*
X12815D01*
X14014Y125533D01*
X15142Y126001D01*
X16158Y126680D01*
X17021Y127543D01*
X17700Y128559D01*
X18167Y129687D01*
X18406Y130885D01*
Y132107D01*
X18167Y133305D01*
X17700Y134433D01*
X17021Y135449D01*
X16158Y136313D01*
X15142Y136991D01*
X14014Y137459D01*
X12815Y137697D01*
D02*
G37*
G36*
X149823Y137697D02*
X148602D01*
X147404Y137459D01*
X146275Y136991D01*
X145260Y136313D01*
X144396Y135449D01*
X143717Y134433D01*
X143250Y133305D01*
X143012Y132107D01*
Y130885D01*
X143250Y129687D01*
X143717Y128559D01*
X144396Y127543D01*
X145260Y126680D01*
X146275Y126001D01*
X147404Y125533D01*
X148602Y125295D01*
X149823D01*
X151021Y125533D01*
X152150Y126001D01*
X153165Y126680D01*
X154029Y127543D01*
X154708Y128559D01*
X155175Y129687D01*
X155413Y130885D01*
Y132107D01*
X155175Y133305D01*
X154708Y134433D01*
X154029Y135449D01*
X153165Y136313D01*
X152150Y136991D01*
X151021Y137459D01*
X149823Y137697D01*
D02*
G37*
G36*
X110234Y129528D02*
X109451D01*
X108727Y129228D01*
X108174Y128674D01*
X107874Y127951D01*
Y127167D01*
X108174Y126444D01*
X108502Y126116D01*
X108529Y125614D01*
X108454Y125510D01*
X107977Y125032D01*
X107677Y124309D01*
Y123526D01*
X107977Y122802D01*
X108531Y122248D01*
X109254Y121949D01*
X110037D01*
X110761Y122248D01*
X111314Y122802D01*
X111614Y123526D01*
Y124309D01*
X111314Y125032D01*
X110986Y125361D01*
X110959Y125862D01*
X111034Y125966D01*
X111511Y126444D01*
X111811Y127167D01*
Y127951D01*
X111511Y128674D01*
X110958Y129228D01*
X110234Y129528D01*
D02*
G37*
G36*
X26741Y117717D02*
X25958D01*
X25234Y117417D01*
X24680Y116863D01*
X24381Y116140D01*
Y115357D01*
X24680Y114633D01*
X25234Y114079D01*
X25958Y113779D01*
X26741D01*
X27464Y114079D01*
X28018Y114633D01*
X28318Y115357D01*
Y116140D01*
X28018Y116863D01*
X27464Y117417D01*
X26741Y117717D01*
D02*
G37*
G36*
X154713Y113602D02*
X153712D01*
X152746Y113344D01*
X151880Y112843D01*
X151172Y112136D01*
X150672Y111270D01*
X150413Y110303D01*
Y109303D01*
X150672Y108337D01*
X151172Y107470D01*
X151880Y106763D01*
X152746Y106263D01*
X153712Y106004D01*
X154713D01*
X155679Y106263D01*
X156545Y106763D01*
X157253Y107470D01*
X157753Y108337D01*
X158012Y109303D01*
Y110303D01*
X157753Y111270D01*
X157253Y112136D01*
X156545Y112843D01*
X155679Y113344D01*
X154713Y113602D01*
D02*
G37*
G36*
X148012D02*
X140413D01*
Y106004D01*
X148012D01*
Y113602D01*
D02*
G37*
G36*
X17705D02*
X16704D01*
X15738Y113344D01*
X14872Y112843D01*
X14165Y112136D01*
X13664Y111270D01*
X13406Y110303D01*
Y109303D01*
X13664Y108337D01*
X14165Y107470D01*
X14872Y106763D01*
X15738Y106263D01*
X16704Y106004D01*
X17705D01*
X18671Y106263D01*
X19537Y106763D01*
X20245Y107470D01*
X20745Y108337D01*
X21004Y109303D01*
Y110303D01*
X20745Y111270D01*
X20245Y112136D01*
X19537Y112843D01*
X18671Y113344D01*
X17705Y113602D01*
D02*
G37*
G36*
X11004D02*
X3405D01*
Y106004D01*
X11004D01*
Y113602D01*
D02*
G37*
G36*
X154713Y103602D02*
X153712D01*
X152746Y103343D01*
X151880Y102843D01*
X151172Y102136D01*
X150672Y101270D01*
X150413Y100303D01*
Y99303D01*
X150672Y98337D01*
X151172Y97470D01*
X151880Y96763D01*
X152746Y96263D01*
X153712Y96004D01*
X154713D01*
X155679Y96263D01*
X156545Y96763D01*
X157253Y97470D01*
X157753Y98337D01*
X158012Y99303D01*
Y100303D01*
X157753Y101270D01*
X157253Y102136D01*
X156545Y102843D01*
X155679Y103343D01*
X154713Y103602D01*
D02*
G37*
G36*
X144713D02*
X143712D01*
X142746Y103343D01*
X141880Y102843D01*
X141173Y102136D01*
X140672Y101270D01*
X140413Y100303D01*
Y99303D01*
X140672Y98337D01*
X141173Y97470D01*
X141880Y96763D01*
X142746Y96263D01*
X143712Y96004D01*
X144713D01*
X145679Y96263D01*
X146545Y96763D01*
X147253Y97470D01*
X147753Y98337D01*
X148012Y99303D01*
Y100303D01*
X147753Y101270D01*
X147253Y102136D01*
X146545Y102843D01*
X145679Y103343D01*
X144713Y103602D01*
D02*
G37*
G36*
X17705D02*
X16704D01*
X15738Y103343D01*
X14872Y102843D01*
X14165Y102136D01*
X13664Y101270D01*
X13406Y100303D01*
Y99303D01*
X13664Y98337D01*
X14165Y97470D01*
X14872Y96763D01*
X15738Y96263D01*
X16704Y96004D01*
X17705D01*
X18671Y96263D01*
X19537Y96763D01*
X20245Y97470D01*
X20745Y98337D01*
X21004Y99303D01*
Y100303D01*
X20745Y101270D01*
X20245Y102136D01*
X19537Y102843D01*
X18671Y103343D01*
X17705Y103602D01*
D02*
G37*
G36*
X7705D02*
X6705D01*
X5738Y103343D01*
X4872Y102843D01*
X4165Y102136D01*
X3664Y101270D01*
X3405Y100303D01*
Y99303D01*
X3664Y98337D01*
X4165Y97470D01*
X4872Y96763D01*
X5738Y96263D01*
X6705Y96004D01*
X7705D01*
X8671Y96263D01*
X9538Y96763D01*
X10245Y97470D01*
X10745Y98337D01*
X11004Y99303D01*
Y100303D01*
X10745Y101270D01*
X10245Y102136D01*
X9538Y102843D01*
X8671Y103343D01*
X7705Y103602D01*
D02*
G37*
G36*
X154713Y93602D02*
X153712D01*
X152746Y93343D01*
X151880Y92843D01*
X151172Y92136D01*
X150672Y91270D01*
X150413Y90303D01*
Y89303D01*
X150672Y88337D01*
X151172Y87470D01*
X151880Y86763D01*
X152746Y86263D01*
X153712Y86004D01*
X154713D01*
X155679Y86263D01*
X156545Y86763D01*
X157253Y87470D01*
X157753Y88337D01*
X158012Y89303D01*
Y90303D01*
X157753Y91270D01*
X157253Y92136D01*
X156545Y92843D01*
X155679Y93343D01*
X154713Y93602D01*
D02*
G37*
G36*
X144713D02*
X143712D01*
X142746Y93343D01*
X141880Y92843D01*
X141173Y92136D01*
X140672Y91270D01*
X140413Y90303D01*
Y89303D01*
X140672Y88337D01*
X141173Y87470D01*
X141880Y86763D01*
X142746Y86263D01*
X143712Y86004D01*
X144713D01*
X145679Y86263D01*
X146545Y86763D01*
X147253Y87470D01*
X147753Y88337D01*
X148012Y89303D01*
Y90303D01*
X147753Y91270D01*
X147253Y92136D01*
X146545Y92843D01*
X145679Y93343D01*
X144713Y93602D01*
D02*
G37*
G36*
X17705D02*
X16704D01*
X15738Y93343D01*
X14872Y92843D01*
X14165Y92136D01*
X13664Y91270D01*
X13406Y90303D01*
Y89303D01*
X13664Y88337D01*
X14165Y87470D01*
X14872Y86763D01*
X15738Y86263D01*
X16704Y86004D01*
X17705D01*
X18671Y86263D01*
X19537Y86763D01*
X20245Y87470D01*
X20745Y88337D01*
X21004Y89303D01*
Y90303D01*
X20745Y91270D01*
X20245Y92136D01*
X19537Y92843D01*
X18671Y93343D01*
X17705Y93602D01*
D02*
G37*
G36*
X7705D02*
X6705D01*
X5738Y93343D01*
X4872Y92843D01*
X4165Y92136D01*
X3664Y91270D01*
X3405Y90303D01*
Y89303D01*
X3664Y88337D01*
X4165Y87470D01*
X4872Y86763D01*
X5738Y86263D01*
X6705Y86004D01*
X7705D01*
X8671Y86263D01*
X9538Y86763D01*
X10245Y87470D01*
X10745Y88337D01*
X11004Y89303D01*
Y90303D01*
X10745Y91270D01*
X10245Y92136D01*
X9538Y92843D01*
X8671Y93343D01*
X7705Y93602D01*
D02*
G37*
G36*
X154713Y83602D02*
X153712D01*
X152746Y83343D01*
X151880Y82843D01*
X151172Y82136D01*
X150672Y81270D01*
X150413Y80303D01*
Y79303D01*
X150672Y78337D01*
X151172Y77470D01*
X151880Y76763D01*
X152746Y76263D01*
X153712Y76004D01*
X154713D01*
X155679Y76263D01*
X156545Y76763D01*
X157253Y77470D01*
X157753Y78337D01*
X158012Y79303D01*
Y80303D01*
X157753Y81270D01*
X157253Y82136D01*
X156545Y82843D01*
X155679Y83343D01*
X154713Y83602D01*
D02*
G37*
G36*
X144713D02*
X143712D01*
X142746Y83343D01*
X141880Y82843D01*
X141173Y82136D01*
X140672Y81270D01*
X140413Y80303D01*
Y79303D01*
X140672Y78337D01*
X141173Y77470D01*
X141880Y76763D01*
X142746Y76263D01*
X143712Y76004D01*
X144713D01*
X145679Y76263D01*
X146545Y76763D01*
X147253Y77470D01*
X147753Y78337D01*
X148012Y79303D01*
Y80303D01*
X147753Y81270D01*
X147253Y82136D01*
X146545Y82843D01*
X145679Y83343D01*
X144713Y83602D01*
D02*
G37*
G36*
X17705D02*
X16704D01*
X15738Y83343D01*
X14872Y82843D01*
X14165Y82136D01*
X13664Y81270D01*
X13406Y80303D01*
Y79303D01*
X13664Y78337D01*
X14165Y77470D01*
X14872Y76763D01*
X15738Y76263D01*
X16704Y76004D01*
X17705D01*
X18671Y76263D01*
X19537Y76763D01*
X20245Y77470D01*
X20745Y78337D01*
X21004Y79303D01*
Y80303D01*
X20745Y81270D01*
X20245Y82136D01*
X19537Y82843D01*
X18671Y83343D01*
X17705Y83602D01*
D02*
G37*
G36*
X7705D02*
X6705D01*
X5738Y83343D01*
X4872Y82843D01*
X4165Y82136D01*
X3664Y81270D01*
X3405Y80303D01*
Y79303D01*
X3664Y78337D01*
X4165Y77470D01*
X4872Y76763D01*
X5738Y76263D01*
X6705Y76004D01*
X7705D01*
X8671Y76263D01*
X9538Y76763D01*
X10245Y77470D01*
X10745Y78337D01*
X11004Y79303D01*
Y80303D01*
X10745Y81270D01*
X10245Y82136D01*
X9538Y82843D01*
X8671Y83343D01*
X7705Y83602D01*
D02*
G37*
G36*
X124998Y79724D02*
X124215D01*
X123491Y79425D01*
X122938Y78871D01*
X122638Y78148D01*
Y77364D01*
X122938Y76641D01*
X123491Y76087D01*
X124215Y75787D01*
X124998D01*
X125721Y76087D01*
X126275Y76641D01*
X126575Y77364D01*
Y78148D01*
X126275Y78871D01*
X125721Y79425D01*
X124998Y79724D01*
D02*
G37*
G36*
X154713Y73602D02*
X153712D01*
X152746Y73343D01*
X151880Y72843D01*
X151172Y72136D01*
X150672Y71270D01*
X150413Y70303D01*
Y69303D01*
X150672Y68337D01*
X151172Y67470D01*
X151880Y66763D01*
X152746Y66263D01*
X153712Y66004D01*
X154713D01*
X155679Y66263D01*
X156545Y66763D01*
X157253Y67470D01*
X157753Y68337D01*
X158012Y69303D01*
Y70303D01*
X157753Y71270D01*
X157253Y72136D01*
X156545Y72843D01*
X155679Y73343D01*
X154713Y73602D01*
D02*
G37*
G36*
X144713D02*
X143712D01*
X142746Y73343D01*
X141880Y72843D01*
X141173Y72136D01*
X140672Y71270D01*
X140413Y70303D01*
Y69303D01*
X140672Y68337D01*
X141173Y67470D01*
X141880Y66763D01*
X142746Y66263D01*
X143712Y66004D01*
X144713D01*
X145679Y66263D01*
X146545Y66763D01*
X147253Y67470D01*
X147753Y68337D01*
X148012Y69303D01*
Y70303D01*
X147753Y71270D01*
X147253Y72136D01*
X146545Y72843D01*
X145679Y73343D01*
X144713Y73602D01*
D02*
G37*
G36*
X17705D02*
X16704D01*
X15738Y73343D01*
X14872Y72843D01*
X14165Y72136D01*
X13664Y71270D01*
X13406Y70303D01*
Y69303D01*
X13664Y68337D01*
X14165Y67470D01*
X14872Y66763D01*
X15738Y66263D01*
X16704Y66004D01*
X17705D01*
X18671Y66263D01*
X19537Y66763D01*
X20245Y67470D01*
X20745Y68337D01*
X21004Y69303D01*
Y70303D01*
X20745Y71270D01*
X20245Y72136D01*
X19537Y72843D01*
X18671Y73343D01*
X17705Y73602D01*
D02*
G37*
G36*
X7705D02*
X6705D01*
X5738Y73343D01*
X4872Y72843D01*
X4165Y72136D01*
X3664Y71270D01*
X3405Y70303D01*
Y69303D01*
X3664Y68337D01*
X4165Y67470D01*
X4872Y66763D01*
X5738Y66263D01*
X6705Y66004D01*
X7705D01*
X8671Y66263D01*
X9538Y66763D01*
X10245Y67470D01*
X10745Y68337D01*
X11004Y69303D01*
Y70303D01*
X10745Y71270D01*
X10245Y72136D01*
X9538Y72843D01*
X8671Y73343D01*
X7705Y73602D01*
D02*
G37*
G36*
X126376Y69869D02*
X125593D01*
X124869Y69570D01*
X124315Y69016D01*
X124016Y68292D01*
Y67509D01*
X124315Y66786D01*
X124869Y66232D01*
X125593Y65932D01*
X126376D01*
X127099Y66232D01*
X127653Y66786D01*
X127953Y67509D01*
Y68292D01*
X127653Y69016D01*
X127099Y69570D01*
X126376Y69869D01*
D02*
G37*
G36*
X104329Y62598D02*
X103545D01*
X102822Y62299D01*
X102268Y61745D01*
X101969Y61022D01*
Y60238D01*
X102268Y59515D01*
X102822Y58961D01*
X103545Y58661D01*
X104329D01*
X105052Y58961D01*
X105606Y59515D01*
X105905Y60238D01*
Y61022D01*
X105606Y61745D01*
X105052Y62299D01*
X104329Y62598D01*
D02*
G37*
G36*
X119289Y61811D02*
X118506D01*
X117783Y61511D01*
X117229Y60958D01*
X116929Y60234D01*
Y59451D01*
X117229Y58727D01*
X117783Y58174D01*
X118506Y57874D01*
X119289D01*
X120013Y58174D01*
X120566Y58727D01*
X120866Y59451D01*
Y60234D01*
X120566Y60958D01*
X120013Y61511D01*
X119289Y61811D01*
D02*
G37*
G36*
X154713Y63602D02*
X153712D01*
X152746Y63343D01*
X151880Y62843D01*
X151172Y62136D01*
X150672Y61270D01*
X150413Y60303D01*
Y59303D01*
X150672Y58337D01*
X151172Y57470D01*
X151880Y56763D01*
X152746Y56263D01*
X153712Y56004D01*
X154713D01*
X155679Y56263D01*
X156545Y56763D01*
X157253Y57470D01*
X157753Y58337D01*
X158012Y59303D01*
Y60303D01*
X157753Y61270D01*
X157253Y62136D01*
X156545Y62843D01*
X155679Y63343D01*
X154713Y63602D01*
D02*
G37*
G36*
X144713D02*
X143712D01*
X142746Y63343D01*
X141880Y62843D01*
X141173Y62136D01*
X140672Y61270D01*
X140413Y60303D01*
Y59303D01*
X140672Y58337D01*
X141173Y57470D01*
X141880Y56763D01*
X142746Y56263D01*
X143712Y56004D01*
X144713D01*
X145679Y56263D01*
X146545Y56763D01*
X147253Y57470D01*
X147753Y58337D01*
X148012Y59303D01*
Y60303D01*
X147753Y61270D01*
X147253Y62136D01*
X146545Y62843D01*
X145679Y63343D01*
X144713Y63602D01*
D02*
G37*
G36*
X17705D02*
X16704D01*
X15738Y63343D01*
X14872Y62843D01*
X14165Y62136D01*
X13664Y61270D01*
X13406Y60303D01*
Y59303D01*
X13664Y58337D01*
X14165Y57470D01*
X14872Y56763D01*
X15738Y56263D01*
X16704Y56004D01*
X17705D01*
X18671Y56263D01*
X19537Y56763D01*
X20245Y57470D01*
X20745Y58337D01*
X21004Y59303D01*
Y60303D01*
X20745Y61270D01*
X20245Y62136D01*
X19537Y62843D01*
X18671Y63343D01*
X17705Y63602D01*
D02*
G37*
G36*
X7705D02*
X6705D01*
X5738Y63343D01*
X4872Y62843D01*
X4165Y62136D01*
X3664Y61270D01*
X3405Y60303D01*
Y59303D01*
X3664Y58337D01*
X4165Y57470D01*
X4872Y56763D01*
X5738Y56263D01*
X6705Y56004D01*
X7705D01*
X8671Y56263D01*
X9538Y56763D01*
X10245Y57470D01*
X10745Y58337D01*
X11004Y59303D01*
Y60303D01*
X10745Y61270D01*
X10245Y62136D01*
X9538Y62843D01*
X8671Y63343D01*
X7705Y63602D01*
D02*
G37*
G36*
X118502Y54331D02*
X117719D01*
X116995Y54031D01*
X116441Y53477D01*
X116142Y52754D01*
Y51971D01*
X116441Y51247D01*
X116995Y50693D01*
X117719Y50394D01*
X118502D01*
X119225Y50693D01*
X119779Y51247D01*
X120079Y51971D01*
Y52754D01*
X119779Y53477D01*
X119225Y54031D01*
X118502Y54331D01*
D02*
G37*
G36*
X154713Y53602D02*
X153712D01*
X152746Y53343D01*
X151880Y52843D01*
X151172Y52136D01*
X150672Y51270D01*
X150413Y50303D01*
Y49303D01*
X150672Y48337D01*
X151172Y47470D01*
X151880Y46763D01*
X152746Y46263D01*
X153712Y46004D01*
X154713D01*
X155679Y46263D01*
X156545Y46763D01*
X157253Y47470D01*
X157753Y48337D01*
X158012Y49303D01*
Y50303D01*
X157753Y51270D01*
X157253Y52136D01*
X156545Y52843D01*
X155679Y53343D01*
X154713Y53602D01*
D02*
G37*
G36*
X144713D02*
X143712D01*
X142746Y53343D01*
X141880Y52843D01*
X141173Y52136D01*
X140672Y51270D01*
X140413Y50303D01*
Y49303D01*
X140672Y48337D01*
X141173Y47470D01*
X141880Y46763D01*
X142746Y46263D01*
X143712Y46004D01*
X144713D01*
X145679Y46263D01*
X146545Y46763D01*
X147253Y47470D01*
X147753Y48337D01*
X148012Y49303D01*
Y50303D01*
X147753Y51270D01*
X147253Y52136D01*
X146545Y52843D01*
X145679Y53343D01*
X144713Y53602D01*
D02*
G37*
G36*
X17705D02*
X16704D01*
X15738Y53343D01*
X14872Y52843D01*
X14165Y52136D01*
X13664Y51270D01*
X13406Y50303D01*
Y49303D01*
X13664Y48337D01*
X14165Y47470D01*
X14872Y46763D01*
X15738Y46263D01*
X16704Y46004D01*
X17705D01*
X18671Y46263D01*
X19537Y46763D01*
X20245Y47470D01*
X20745Y48337D01*
X21004Y49303D01*
Y50303D01*
X20745Y51270D01*
X20245Y52136D01*
X19537Y52843D01*
X18671Y53343D01*
X17705Y53602D01*
D02*
G37*
G36*
X7705D02*
X6705D01*
X5738Y53343D01*
X4872Y52843D01*
X4165Y52136D01*
X3664Y51270D01*
X3405Y50303D01*
Y49303D01*
X3664Y48337D01*
X4165Y47470D01*
X4872Y46763D01*
X5738Y46263D01*
X6705Y46004D01*
X7705D01*
X8671Y46263D01*
X9538Y46763D01*
X10245Y47470D01*
X10745Y48337D01*
X11004Y49303D01*
Y50303D01*
X10745Y51270D01*
X10245Y52136D01*
X9538Y52843D01*
X8671Y53343D01*
X7705Y53602D01*
D02*
G37*
G36*
X100392Y49606D02*
X99608D01*
X98885Y49307D01*
X98331Y48753D01*
X98032Y48029D01*
Y47246D01*
X98331Y46523D01*
X98885Y45969D01*
X99608Y45669D01*
X100392D01*
X101115Y45969D01*
X101669Y46523D01*
X101969Y47246D01*
Y48029D01*
X101669Y48753D01*
X101115Y49307D01*
X100392Y49606D01*
D02*
G37*
G36*
X118895Y46260D02*
X118112D01*
X117389Y45960D01*
X116835Y45406D01*
X116535Y44683D01*
Y43900D01*
X116835Y43176D01*
X117389Y42623D01*
X118112Y42323D01*
X118895D01*
X119619Y42623D01*
X120173Y43176D01*
X120472Y43900D01*
Y44683D01*
X120173Y45406D01*
X119619Y45960D01*
X118895Y46260D01*
D02*
G37*
G36*
X96698Y45240D02*
X95915D01*
X95191Y44941D01*
X94637Y44387D01*
X94337Y43663D01*
Y42880D01*
X94637Y42157D01*
X95191Y41603D01*
X95915Y41303D01*
X96698D01*
X97421Y41603D01*
X97975Y42157D01*
X98274Y42880D01*
Y43663D01*
X97975Y44387D01*
X97421Y44941D01*
X96698Y45240D01*
D02*
G37*
G36*
X63777Y43701D02*
X62994D01*
X62271Y43401D01*
X61717Y42847D01*
X61417Y42124D01*
Y41341D01*
X61717Y40617D01*
X62271Y40064D01*
X62994Y39764D01*
X63777D01*
X64501Y40064D01*
X65055Y40617D01*
X65354Y41341D01*
Y42124D01*
X65055Y42847D01*
X64501Y43401D01*
X63777Y43701D01*
D02*
G37*
G36*
X154713Y43602D02*
X153712D01*
X152746Y43343D01*
X151880Y42843D01*
X151172Y42136D01*
X150672Y41270D01*
X150413Y40303D01*
Y39303D01*
X150672Y38337D01*
X151172Y37470D01*
X151880Y36763D01*
X152746Y36263D01*
X153712Y36004D01*
X154713D01*
X155679Y36263D01*
X156545Y36763D01*
X157253Y37470D01*
X157753Y38337D01*
X158012Y39303D01*
Y40303D01*
X157753Y41270D01*
X157253Y42136D01*
X156545Y42843D01*
X155679Y43343D01*
X154713Y43602D01*
D02*
G37*
G36*
X17705D02*
X16704D01*
X15738Y43343D01*
X14872Y42843D01*
X14165Y42136D01*
X13664Y41270D01*
X13406Y40303D01*
Y39303D01*
X13664Y38337D01*
X14165Y37470D01*
X14872Y36763D01*
X15738Y36263D01*
X16704Y36004D01*
X17705D01*
X18671Y36263D01*
X19537Y36763D01*
X20245Y37470D01*
X20745Y38337D01*
X21004Y39303D01*
Y40303D01*
X20745Y41270D01*
X20245Y42136D01*
X19537Y42843D01*
X18671Y43343D01*
X17705Y43602D01*
D02*
G37*
G36*
X69880Y39764D02*
X69097D01*
X68373Y39464D01*
X67819Y38910D01*
X67520Y38187D01*
Y37404D01*
X67819Y36680D01*
X68373Y36127D01*
X69097Y35827D01*
X69880D01*
X70603Y36127D01*
X71157Y36680D01*
X71457Y37404D01*
Y38187D01*
X71157Y38910D01*
X70603Y39464D01*
X69880Y39764D01*
D02*
G37*
G36*
X75588Y36614D02*
X74805D01*
X74082Y36314D01*
X73528Y35761D01*
X73228Y35037D01*
Y34254D01*
X73528Y33531D01*
X74082Y32977D01*
X74805Y32677D01*
X75588D01*
X76312Y32977D01*
X76866Y33531D01*
X77165Y34254D01*
Y35037D01*
X76866Y35761D01*
X76312Y36314D01*
X75588Y36614D01*
D02*
G37*
G36*
X66533D02*
X65750D01*
X65027Y36314D01*
X64473Y35761D01*
X64173Y35037D01*
Y34254D01*
X64473Y33531D01*
X65027Y32977D01*
X65750Y32677D01*
X66533D01*
X67257Y32977D01*
X67811Y33531D01*
X68110Y34254D01*
Y35037D01*
X67811Y35761D01*
X67257Y36314D01*
X66533Y36614D01*
D02*
G37*
G36*
X75588Y31890D02*
X74805D01*
X74082Y31590D01*
X73528Y31036D01*
X73228Y30313D01*
Y29530D01*
X73528Y28806D01*
X74082Y28252D01*
X74805Y27953D01*
X75588D01*
X76312Y28252D01*
X76866Y28806D01*
X77165Y29530D01*
Y30313D01*
X76866Y31036D01*
X76312Y31590D01*
X75588Y31890D01*
D02*
G37*
G36*
X66533D02*
X65750D01*
X65027Y31590D01*
X64473Y31036D01*
X64173Y30313D01*
Y29530D01*
X64473Y28806D01*
X65027Y28252D01*
X65750Y27953D01*
X66533D01*
X67257Y28252D01*
X67811Y28806D01*
X68110Y29530D01*
Y30313D01*
X67811Y31036D01*
X67257Y31590D01*
X66533Y31890D01*
D02*
G37*
G36*
X132341Y31241D02*
X131558D01*
X130834Y30942D01*
X130280Y30388D01*
X129981Y29664D01*
Y28881D01*
X130219Y28306D01*
X129594Y28047D01*
X129040Y27493D01*
X128740Y26770D01*
Y25986D01*
X129040Y25263D01*
X129594Y24709D01*
X130317Y24409D01*
X131100D01*
X131824Y24709D01*
X132378Y25263D01*
X132677Y25986D01*
Y26770D01*
X132439Y27345D01*
X133064Y27604D01*
X133618Y28158D01*
X133918Y28881D01*
Y29664D01*
X133618Y30388D01*
X133064Y30942D01*
X132341Y31241D01*
D02*
G37*
G36*
X104329Y25984D02*
X103545D01*
X102822Y25685D01*
X102268Y25131D01*
X101969Y24407D01*
Y23624D01*
X102268Y22901D01*
X102822Y22347D01*
X103545Y22047D01*
X104329D01*
X105052Y22347D01*
X105606Y22901D01*
X105905Y23624D01*
Y24407D01*
X105606Y25131D01*
X105052Y25685D01*
X104329Y25984D01*
D02*
G37*
G36*
X75045Y21272D02*
X74261D01*
X73538Y20973D01*
X72984Y20419D01*
X72685Y19695D01*
Y18912D01*
X72984Y18189D01*
X73538Y17635D01*
X74261Y17335D01*
X75045D01*
X75768Y17635D01*
X76322Y18189D01*
X76622Y18912D01*
Y19695D01*
X76322Y20419D01*
X75768Y20973D01*
X75045Y21272D01*
D02*
G37*
G36*
X105472Y21222D02*
X104689D01*
X103965Y20922D01*
X103411Y20369D01*
X103112Y19645D01*
Y18862D01*
X103411Y18138D01*
X103965Y17585D01*
X104689Y17285D01*
X105472D01*
X106195Y17585D01*
X106749Y18138D01*
X107049Y18862D01*
Y19645D01*
X106749Y20369D01*
X106195Y20922D01*
X105472Y21222D01*
D02*
G37*
G36*
X149823Y25886D02*
X148602D01*
X147404Y25648D01*
X146275Y25180D01*
X145260Y24502D01*
X144396Y23638D01*
X143717Y22622D01*
X143250Y21494D01*
X143012Y20296D01*
Y19074D01*
X143250Y17876D01*
X143717Y16748D01*
X144396Y15732D01*
X145260Y14868D01*
X146275Y14190D01*
X147404Y13722D01*
X148602Y13484D01*
X149823D01*
X151021Y13722D01*
X152150Y14190D01*
X153165Y14868D01*
X154029Y15732D01*
X154708Y16748D01*
X155175Y17876D01*
X155413Y19074D01*
Y20296D01*
X155175Y21494D01*
X154708Y22622D01*
X154029Y23638D01*
X153165Y24502D01*
X152150Y25180D01*
X151021Y25648D01*
X149823Y25886D01*
D02*
G37*
G36*
X12815D02*
X11594D01*
X10396Y25648D01*
X9268Y25180D01*
X8252Y24502D01*
X7388Y23638D01*
X6710Y22622D01*
X6242Y21494D01*
X6004Y20296D01*
Y19074D01*
X6242Y17876D01*
X6710Y16748D01*
X7388Y15732D01*
X8252Y14868D01*
X9268Y14190D01*
X10396Y13722D01*
X11594Y13484D01*
X12815D01*
X14014Y13722D01*
X15142Y14190D01*
X16158Y14868D01*
X17021Y15732D01*
X17700Y16748D01*
X18167Y17876D01*
X18406Y19074D01*
Y20296D01*
X18167Y21494D01*
X17700Y22622D01*
X17021Y23638D01*
X16158Y24502D01*
X15142Y25180D01*
X14014Y25648D01*
X12815Y25886D01*
D02*
G37*
G36*
X132675Y16929D02*
X131892D01*
X131168Y16629D01*
X130615Y16076D01*
X130315Y15352D01*
Y14569D01*
X130615Y13846D01*
X131168Y13292D01*
X131892Y12992D01*
X132675D01*
X133398Y13292D01*
X133952Y13846D01*
X134252Y14569D01*
Y15352D01*
X133952Y16076D01*
X133398Y16629D01*
X132675Y16929D01*
D02*
G37*
G36*
X64959Y15354D02*
X64175D01*
X63452Y15055D01*
X62898Y14501D01*
X62598Y13777D01*
Y12994D01*
X62898Y12271D01*
X63452Y11717D01*
X64175Y11417D01*
X64959D01*
X65682Y11717D01*
X66236Y12271D01*
X66535Y12994D01*
Y13777D01*
X66236Y14501D01*
X65682Y15055D01*
X64959Y15354D01*
D02*
G37*
G36*
X120470Y13386D02*
X119687D01*
X118964Y13086D01*
X118410Y12532D01*
X118110Y11809D01*
Y11026D01*
X118410Y10302D01*
X118964Y9748D01*
X119687Y9449D01*
X120470D01*
X121194Y9748D01*
X121748Y10302D01*
X122047Y11026D01*
Y11809D01*
X121748Y12532D01*
X121194Y13086D01*
X120470Y13386D01*
D02*
G37*
G36*
X35531Y3445D02*
X28642D01*
Y-3445D01*
X35531D01*
Y3445D01*
D02*
G37*
G36*
X24666D02*
X23759D01*
X22883Y3210D01*
X22097Y2757D01*
X21456Y2115D01*
X21002Y1330D01*
X20768Y453D01*
Y-453D01*
X21002Y-1330D01*
X21456Y-2115D01*
X22097Y-2757D01*
X22883Y-3210D01*
X23759Y-3445D01*
X24666D01*
X25542Y-3210D01*
X26328Y-2757D01*
X26969Y-2115D01*
X27423Y-1330D01*
X27657Y-453D01*
Y453D01*
X27423Y1330D01*
X26969Y2115D01*
X26328Y2757D01*
X25542Y3210D01*
X24666Y3445D01*
D02*
G37*
G36*
X16792D02*
X15885D01*
X15009Y3210D01*
X14223Y2757D01*
X13582Y2115D01*
X13128Y1330D01*
X12894Y453D01*
Y-453D01*
X13128Y-1330D01*
X13582Y-2115D01*
X14223Y-2757D01*
X15009Y-3210D01*
X15885Y-3445D01*
X16792D01*
X17668Y-3210D01*
X18454Y-2757D01*
X19095Y-2115D01*
X19549Y-1330D01*
X19783Y-453D01*
Y453D01*
X19549Y1330D01*
X19095Y2115D01*
X18454Y2757D01*
X17668Y3210D01*
X16792Y3445D01*
D02*
G37*
%LPD*%
D48*
X144213Y39803D02*
D03*
X7205D02*
D03*
D52*
X99508Y38976D02*
D03*
X75394Y57185D02*
D03*
X82776Y14567D02*
D03*
X75984Y12598D02*
D03*
X116535Y-394D02*
D03*
X26772Y112205D02*
D03*
X74803Y115118D02*
D03*
X77559Y117874D02*
D03*
X80315Y115118D02*
D03*
X77559Y112362D02*
D03*
X72047D02*
D03*
Y106850D02*
D03*
X74803Y109606D02*
D03*
X72047Y117874D02*
D03*
X77559Y106850D02*
D03*
X80315Y109606D02*
D03*
X69291D02*
D03*
Y115118D02*
D03*
X58268Y65748D02*
D03*
X36614Y17520D02*
D03*
Y21260D02*
D03*
X42520D02*
D03*
X48425Y21457D02*
D03*
X54331D02*
D03*
X54528Y55512D02*
D03*
X48622D02*
D03*
X42717Y55315D02*
D03*
X36811D02*
D03*
X92716Y-3347D02*
D03*
X120669Y142520D02*
D03*
X39035Y142756D02*
D03*
D53*
X43307Y41929D02*
D03*
X47638D02*
D03*
X43307Y37598D02*
D03*
X47638D02*
D03*
X43307Y33268D02*
D03*
X47638D02*
D03*
M02*
