G04*
G04 #@! TF.GenerationSoftware,Altium Limited,Altium Designer,22.3.1 (43)*
G04*
G04 Layer_Color=32896*
%FSLAX25Y25*%
%MOIN*%
G70*
G04*
G04 #@! TF.SameCoordinates,2B40A856-6C47-4DC4-A76D-FC4A54A6A395*
G04*
G04*
G04 #@! TF.FilePolarity,Positive*
G04*
G01*
G75*
%ADD12C,0.00787*%
%ADD13C,0.00591*%
%ADD14C,0.01000*%
%ADD67C,0.00500*%
%ADD68C,0.00394*%
D12*
X144449Y118799D02*
X143661D01*
X144449D01*
X7441D02*
X6654D01*
X7441D01*
X80500Y49126D02*
X93516D01*
X80500Y39850D02*
X93516D01*
X80500Y59756D02*
X93516D01*
X80500Y50480D02*
X93516D01*
X78740Y143701D02*
X80709Y145669D01*
X80709D02*
X82677Y143701D01*
X80709Y139370D02*
Y145669D01*
X93578Y97523D02*
Y108776D01*
X100910Y97523D02*
Y108776D01*
X102240Y97523D02*
Y108776D01*
X109571Y97523D02*
Y108776D01*
X130118Y96260D02*
Y98819D01*
X127264Y96260D02*
X130118D01*
X118701D02*
Y98819D01*
Y96260D02*
X121555D01*
X118701Y132283D02*
Y134843D01*
X121555D01*
X130118Y132283D02*
Y134843D01*
X127264D02*
X130118D01*
X139469Y33799D02*
X158957D01*
X139469D02*
Y115807D01*
X158957D01*
Y33799D02*
Y115807D01*
X2461Y33799D02*
X21949D01*
X2461D02*
Y115807D01*
X21949D01*
Y33799D02*
Y115807D01*
X30413Y118898D02*
X34547D01*
X118405Y115551D02*
X122539D01*
X126279D02*
X130413D01*
X11713Y3937D02*
X32087D01*
X11713Y-3937D02*
Y3937D01*
Y-3937D02*
X36713D01*
Y0D01*
X37119Y129318D02*
Y142335D01*
X27842Y129318D02*
Y142335D01*
D13*
X21195Y-5316D02*
X23819D01*
Y-9252D01*
X21195D01*
X23819Y-7284D02*
X22507D01*
X19883Y-5316D02*
X17259Y-9252D01*
Y-5316D02*
X19883Y-9252D01*
X15947Y-5316D02*
X13324D01*
X14636D01*
Y-9252D01*
X36811Y-5316D02*
Y-8596D01*
X36155Y-9252D01*
X34843D01*
X34187Y-8596D01*
Y-5316D01*
X30252Y-5972D02*
X30907Y-5316D01*
X32219D01*
X32875Y-5972D01*
Y-6628D01*
X32219Y-7284D01*
X30907D01*
X30252Y-7940D01*
Y-8596D01*
X30907Y-9252D01*
X32219D01*
X32875Y-8596D01*
X28940Y-5316D02*
Y-9252D01*
X26972D01*
X26316Y-8596D01*
Y-7940D01*
X26972Y-7284D01*
X28940D01*
X26972D01*
X26316Y-6628D01*
Y-5972D01*
X26972Y-5316D01*
X28940D01*
D14*
X121247Y86625D02*
X122034Y87412D01*
X123608D01*
X124395Y86625D01*
Y85838D01*
X123608Y85051D01*
X122034D01*
X121247Y84264D01*
Y83477D01*
X122034Y82689D01*
X123608D01*
X124395Y83477D01*
X119672Y82689D02*
Y85838D01*
X118885D01*
X118098Y85051D01*
Y82689D01*
Y85051D01*
X117311Y85838D01*
X116524Y85051D01*
Y82689D01*
X114162Y85838D02*
X112588D01*
X111801Y85051D01*
Y82689D01*
X114162D01*
X114949Y83477D01*
X114162Y84264D01*
X111801D01*
X110227Y85838D02*
Y82689D01*
Y84264D01*
X109439Y85051D01*
X108652Y85838D01*
X107865D01*
X104717Y86625D02*
Y85838D01*
X105504D01*
X103929D01*
X104717D01*
Y83477D01*
X103929Y82689D01*
X96845Y87412D02*
X95271D01*
X96058D01*
Y82689D01*
X96845D01*
X95271D01*
X92122D02*
X90548D01*
X89761Y83477D01*
Y85051D01*
X90548Y85838D01*
X92122D01*
X92909Y85051D01*
Y83477D01*
X92122Y82689D01*
X88186Y87412D02*
X85038D01*
X86612D01*
Y82689D01*
X78741Y87412D02*
Y82689D01*
X77166Y84264D01*
X75592Y82689D01*
Y87412D01*
X73231Y85838D02*
X71656D01*
X70869Y85051D01*
Y82689D01*
X73231D01*
X74018Y83477D01*
X73231Y84264D01*
X70869D01*
X69295Y82689D02*
X67721D01*
X68508D01*
Y87412D01*
X69295D01*
X65359Y82689D02*
X63785D01*
X64572D01*
Y87412D01*
X65359D01*
X61423Y82689D02*
X59062D01*
X58275Y83477D01*
X59062Y84264D01*
X60636D01*
X61423Y85051D01*
X60636Y85838D01*
X58275D01*
X56700D02*
Y83477D01*
X55913Y82689D01*
X55126Y83477D01*
X54339Y82689D01*
X53552Y83477D01*
Y85838D01*
X51978Y82689D02*
X50403D01*
X51191D01*
Y85838D01*
X51978D01*
X47255Y86625D02*
Y85838D01*
X48042D01*
X46468D01*
X47255D01*
Y83477D01*
X46468Y82689D01*
X40958Y85838D02*
X43319D01*
X44106Y85051D01*
Y83477D01*
X43319Y82689D01*
X40958D01*
X39383Y87412D02*
Y82689D01*
Y85051D01*
X38596Y85838D01*
X37022D01*
X36235Y85051D01*
Y82689D01*
X101962Y78558D02*
X102749Y79345D01*
X104323D01*
X105110Y78558D01*
Y75409D01*
X104323Y74622D01*
X102749D01*
X101962Y75409D01*
X98026Y79345D02*
X99600D01*
X100387Y78558D01*
Y75409D01*
X99600Y74622D01*
X98026D01*
X97239Y75409D01*
Y78558D01*
X98026Y79345D01*
X95664Y74622D02*
Y79345D01*
X93303D01*
X92516Y78558D01*
Y76983D01*
X93303Y76196D01*
X95664D01*
X94090D02*
X92516Y74622D01*
X87793Y79345D02*
X90941D01*
Y74622D01*
X87793D01*
X90941Y76983D02*
X89367D01*
X81496Y74622D02*
Y79345D01*
X79921Y77771D01*
X78347Y79345D01*
Y74622D01*
X75986D02*
X74411D01*
X73624Y75409D01*
Y76983D01*
X74411Y77771D01*
X75986D01*
X76773Y76983D01*
Y75409D01*
X75986Y74622D01*
X68901Y79345D02*
Y74622D01*
X71263D01*
X72050Y75409D01*
Y76983D01*
X71263Y77771D01*
X68901D01*
X67327D02*
Y75409D01*
X66540Y74622D01*
X64178D01*
Y77771D01*
X62604Y74622D02*
X61030D01*
X61817D01*
Y79345D01*
X62604D01*
X56307Y74622D02*
X57881D01*
X58668Y75409D01*
Y76983D01*
X57881Y77771D01*
X56307D01*
X55520Y76983D01*
Y76196D01*
X58668D01*
X88055Y137219D02*
X84382D01*
X86219D01*
Y131709D01*
X79790Y137219D02*
X81627D01*
X82545Y136300D01*
Y132627D01*
X81627Y131709D01*
X79790D01*
X78872Y132627D01*
Y136300D01*
X79790Y137219D01*
X77035Y131709D02*
Y137219D01*
X74280D01*
X73362Y136300D01*
Y134464D01*
X74280Y133545D01*
X77035D01*
X110234Y21654D02*
Y26377D01*
X107873D01*
X107086Y25590D01*
Y24016D01*
X107873Y23229D01*
X110234D01*
X108660D02*
X107086Y21654D01*
X105511Y26377D02*
Y21654D01*
X103150D01*
X102363Y22442D01*
Y25590D01*
X103150Y26377D01*
X105511D01*
X100788Y21654D02*
Y26377D01*
X98427D01*
X97640Y25590D01*
Y24016D01*
X98427Y23229D01*
X100788D01*
X110234Y29922D02*
Y34645D01*
X107873D01*
X107086Y33858D01*
Y32283D01*
X107873Y31496D01*
X110234D01*
X108660D02*
X107086Y29922D01*
X105511Y34645D02*
Y29922D01*
X103150D01*
X102363Y30709D01*
Y33858D01*
X103150Y34645D01*
X105511D01*
X100788Y29922D02*
Y34645D01*
X99214Y33071D01*
X97640Y34645D01*
Y29922D01*
X112204Y54724D02*
X115352D01*
Y52362D01*
X113778D01*
X115352D01*
Y50001D01*
X110630Y54724D02*
Y50001D01*
X108268D01*
X107481Y50788D01*
Y51575D01*
X108268Y52362D01*
X110630D01*
X108268D01*
X107481Y53149D01*
Y53936D01*
X108268Y54724D01*
X110630D01*
X105907Y50001D02*
X104332D01*
X105120D01*
Y54724D01*
X105907Y53936D01*
X87795Y66141D02*
X88582Y66928D01*
X90156D01*
X90944Y66141D01*
Y62993D01*
X90156Y62205D01*
X88582D01*
X87795Y62993D01*
X86221D02*
X85434Y62205D01*
X83859D01*
X83072Y62993D01*
Y66141D01*
X83859Y66928D01*
X85434D01*
X86221Y66141D01*
Y65354D01*
X85434Y64567D01*
X83072D01*
X87795Y37401D02*
X88582Y38188D01*
X90156D01*
X90944Y37401D01*
Y34253D01*
X90156Y33465D01*
X88582D01*
X87795Y34253D01*
X86221Y37401D02*
X85434Y38188D01*
X83859D01*
X83072Y37401D01*
Y36614D01*
X83859Y35827D01*
X83072Y35040D01*
Y34253D01*
X83859Y33465D01*
X85434D01*
X86221Y34253D01*
Y35040D01*
X85434Y35827D01*
X86221Y36614D01*
Y37401D01*
X85434Y35827D02*
X83859D01*
X115747Y132283D02*
X112599D01*
X111812Y133071D01*
Y134645D01*
X112599Y135432D01*
X115747D01*
X116535Y134645D01*
Y133071D01*
X114960Y133858D02*
X116535Y132283D01*
Y133071D02*
X115747Y132283D01*
X116535Y130709D02*
Y129135D01*
Y129922D01*
X111812D01*
X112599Y130709D01*
X136417Y43109D02*
X131694D01*
Y40747D01*
X132481Y39960D01*
X134055D01*
X134842Y40747D01*
Y43109D01*
X136417Y35238D02*
Y38386D01*
X133268Y35238D01*
X132481D01*
X131694Y36025D01*
Y37599D01*
X132481Y38386D01*
X29724Y39960D02*
X25001D01*
Y37598D01*
X25788Y36811D01*
X27362D01*
X28149Y37598D01*
Y39960D01*
X29724Y35237D02*
Y33662D01*
Y34450D01*
X25001D01*
X25788Y35237D01*
X34449Y11810D02*
X36023D01*
X35236D01*
Y7875D01*
X36023Y7087D01*
X36810D01*
X37597Y7875D01*
X29726Y7087D02*
X32874D01*
X29726Y10236D01*
Y11023D01*
X30513Y11810D01*
X32087D01*
X32874Y11023D01*
X98818Y8856D02*
X94095D01*
Y6495D01*
X94882Y5708D01*
X96457D01*
X97244Y6495D01*
Y8856D01*
Y7282D02*
X98818Y5708D01*
X94882Y985D02*
X94095Y1772D01*
Y3346D01*
X94882Y4133D01*
X95670D01*
X96457Y3346D01*
Y1772D01*
X97244Y985D01*
X98031D01*
X98818Y1772D01*
Y3346D01*
X98031Y4133D01*
X94095Y-589D02*
Y-3738D01*
Y-2164D01*
X98818D01*
X63385Y52360D02*
X58662D01*
Y49999D01*
X59449Y49212D01*
X61024D01*
X61811Y49999D01*
Y52360D01*
Y50786D02*
X63385Y49212D01*
Y47637D02*
Y46063D01*
Y46850D01*
X58662D01*
X59449Y47637D01*
X63385Y40553D02*
Y43702D01*
X60237Y40553D01*
X59449D01*
X58662Y41340D01*
Y42915D01*
X59449Y43702D01*
X115944Y119093D02*
X111221D01*
Y116732D01*
X112008Y115945D01*
X113583D01*
X114370Y116732D01*
Y119093D01*
Y117519D02*
X115944Y115945D01*
X111221Y111222D02*
X112008Y112796D01*
X113583Y114370D01*
X115157D01*
X115944Y113583D01*
Y112009D01*
X115157Y111222D01*
X114370D01*
X113583Y112009D01*
Y114370D01*
X137519Y119093D02*
X132796D01*
Y116732D01*
X133583Y115945D01*
X135157D01*
X135945Y116732D01*
Y119093D01*
Y117519D02*
X137519Y115945D01*
X132796Y111222D02*
Y114370D01*
X135157D01*
X134370Y112796D01*
Y112009D01*
X135157Y111222D01*
X136732D01*
X137519Y112009D01*
Y113583D01*
X136732Y114370D01*
X99606Y120471D02*
X94883D01*
Y118110D01*
X95670Y117323D01*
X97244D01*
X98031Y118110D01*
Y120471D01*
Y118897D02*
X99606Y117323D01*
X95670Y115748D02*
X94883Y114961D01*
Y113387D01*
X95670Y112600D01*
X96457D01*
X97244Y113387D01*
Y114174D01*
Y113387D01*
X98031Y112600D01*
X98818D01*
X99606Y113387D01*
Y114961D01*
X98818Y115748D01*
X107873Y120471D02*
X103150D01*
Y118110D01*
X103937Y117323D01*
X105512D01*
X106299Y118110D01*
Y120471D01*
Y118897D02*
X107873Y117323D01*
Y112600D02*
Y115748D01*
X104725Y112600D01*
X103937D01*
X103150Y113387D01*
Y114961D01*
X103937Y115748D01*
X43503Y121652D02*
X38780D01*
Y119291D01*
X39567Y118504D01*
X41142D01*
X41929Y119291D01*
Y121652D01*
Y120078D02*
X43503Y118504D01*
Y116930D02*
Y115355D01*
Y116142D01*
X38780D01*
X39567Y116930D01*
X115747Y100000D02*
X112599D01*
X111812Y100787D01*
Y102361D01*
X112599Y103148D01*
X115747D01*
X116535Y102361D01*
Y100787D01*
X114960Y101574D02*
X116535Y100000D01*
Y100787D02*
X115747Y100000D01*
X116535Y95277D02*
Y98425D01*
X113386Y95277D01*
X112599D01*
X111812Y96064D01*
Y97638D01*
X112599Y98425D01*
X40355Y137205D02*
X39568Y137992D01*
Y139566D01*
X40355Y140353D01*
X43503D01*
X44291Y139566D01*
Y137992D01*
X43503Y137205D01*
X40355Y135630D02*
X39568Y134843D01*
Y133269D01*
X40355Y132482D01*
X41142D01*
X41929Y133269D01*
Y134056D01*
Y133269D01*
X42716Y132482D01*
X43503D01*
X44291Y133269D01*
Y134843D01*
X43503Y135630D01*
X136024Y10627D02*
X140747D01*
Y8266D01*
X139960Y7479D01*
X139173D01*
X138386Y8266D01*
Y10627D01*
Y8266D01*
X137599Y7479D01*
X136811D01*
X136024Y8266D01*
Y10627D01*
Y3543D02*
Y5117D01*
X136811Y5904D01*
X139960D01*
X140747Y5117D01*
Y3543D01*
X139960Y2756D01*
X136811D01*
X136024Y3543D01*
Y-1180D02*
Y394D01*
X136811Y1181D01*
X139960D01*
X140747Y394D01*
Y-1180D01*
X139960Y-1967D01*
X136811D01*
X136024Y-1180D01*
Y-3542D02*
Y-6690D01*
Y-5116D01*
X140747D01*
D67*
X118583Y26083D02*
X120787D01*
X118583Y21161D02*
X120787D01*
X118583Y34744D02*
X120787D01*
X118583Y29823D02*
X120787D01*
D68*
X101969Y40748D02*
Y48228D01*
X117717Y40748D02*
Y48228D01*
X101969Y40748D02*
X117717D01*
X101969Y48228D02*
X117717D01*
X102362Y-4331D02*
Y11024D01*
X113779Y-4331D02*
Y11024D01*
X121850Y-4331D02*
Y11024D01*
X133268Y-4331D02*
Y11024D01*
M02*
