G04*
G04 #@! TF.GenerationSoftware,Altium Limited,Altium Designer,22.3.1 (43)*
G04*
G04 Layer_Color=32896*
%FSLAX25Y25*%
%MOIN*%
G70*
G04*
G04 #@! TF.SameCoordinates,F80411C8-1A31-43C8-AF9B-28CD4ED9FA2C*
G04*
G04*
G04 #@! TF.FilePolarity,Positive*
G04*
G01*
G75*
%ADD10C,0.00787*%
%ADD13C,0.01000*%
%ADD47C,0.00787*%
%ADD48C,0.00394*%
D10*
X70878Y19279D02*
Y37414D01*
X59830Y19279D02*
Y37414D01*
X56484Y87488D02*
X69500D01*
X56484Y96764D02*
X69500D01*
X43319Y19279D02*
Y37414D01*
X32271Y19279D02*
Y37414D01*
X57099Y19279D02*
Y37414D01*
X46051Y19279D02*
Y37414D01*
D13*
X88008Y81481D02*
X91944D01*
X89976Y79513D02*
Y83449D01*
X111622Y81481D02*
X115558D01*
X130890Y114356D02*
Y118291D01*
X126954Y114356D01*
X125970D01*
X124986Y115340D01*
Y117307D01*
X125970Y118291D01*
X130890Y109436D02*
X124986D01*
X127938Y112388D01*
Y108452D01*
X124986Y106484D02*
X128922D01*
X130890Y104516D01*
X128922Y102548D01*
X124986D01*
Y100581D02*
X130890D01*
Y97629D01*
X129906Y96645D01*
X125970D01*
X124986Y97629D01*
Y100581D01*
X125970Y90741D02*
X124986Y91725D01*
Y93693D01*
X125970Y94677D01*
X129906D01*
X130890Y93693D01*
Y91725D01*
X129906Y90741D01*
X71654Y112598D02*
Y114435D01*
Y113517D01*
X76246D01*
X77165Y114435D01*
Y115353D01*
X76246Y116272D01*
X77165Y110762D02*
Y108925D01*
Y109843D01*
X71654D01*
X72573Y110762D01*
X74804Y62532D02*
X80314D01*
Y58858D01*
Y57022D02*
Y55185D01*
Y56103D01*
X74804D01*
X75722Y57022D01*
X66666Y13648D02*
X67585Y14566D01*
X69421D01*
X70340Y13648D01*
Y9974D01*
X69421Y9056D01*
X67585D01*
X66666Y9974D01*
X64830D02*
X63911Y9056D01*
X62075D01*
X61156Y9974D01*
Y13648D01*
X62075Y14566D01*
X63911D01*
X64830Y13648D01*
Y12729D01*
X63911Y11811D01*
X61156D01*
X52493Y13648D02*
X53412Y14566D01*
X55248D01*
X56166Y13648D01*
Y9974D01*
X55248Y9056D01*
X53412D01*
X52493Y9974D01*
X50656Y13648D02*
X49738Y14566D01*
X47901D01*
X46983Y13648D01*
Y12729D01*
X47901Y11811D01*
X46983Y10893D01*
Y9974D01*
X47901Y9056D01*
X49738D01*
X50656Y9974D01*
Y10893D01*
X49738Y11811D01*
X50656Y12729D01*
Y13648D01*
X49738Y11811D02*
X47901D01*
X38714Y13648D02*
X39632Y14566D01*
X41469D01*
X42387Y13648D01*
Y9974D01*
X41469Y9056D01*
X39632D01*
X38714Y9974D01*
X36877Y14566D02*
X33204D01*
Y13648D01*
X36877Y9974D01*
Y9056D01*
X63517Y104199D02*
X64435Y105117D01*
X66272D01*
X67190Y104199D01*
Y100525D01*
X66272Y99607D01*
X64435D01*
X63517Y100525D01*
X58007Y105117D02*
X61680D01*
Y102362D01*
X59843Y103280D01*
X58925D01*
X58007Y102362D01*
Y100525D01*
X58925Y99607D01*
X60762D01*
X61680Y100525D01*
D47*
X79527Y104724D02*
D03*
D48*
X122047Y64567D02*
X132874D01*
Y15354D02*
Y64567D01*
X122047Y15354D02*
X132874D01*
X83661D02*
X94488D01*
X83661D02*
Y64567D01*
X94488D01*
X82677Y88779D02*
Y120669D01*
X122047D01*
Y88779D02*
Y120669D01*
X82677Y88779D02*
X122047D01*
M02*
