M48
;Layer_Color=9474304
;FILE_FORMAT=2:4
INCH,TZ
;TYPE=PLATED
T1F00S00C0.0118
T2F00S00C0.0315
T3F00S00C0.0402
T4F00S00C0.0433
T5F00S00C0.0472
;TYPE=NON_PLATED
T6F00S00C0.0709
T7F00S00C0.1083
T8F00S00C0.1181
%
T01
X12087Y2323
X12677Y4567
X13268Y4646
Y9173
X12795
X11929Y11457
Y12244
X11890Y12992
Y13780
X10748Y10472
X14646Y11614
X18465Y11024
X21969Y8701
X5551Y11654
T02
X11024Y3071
X11811
X12598
X13386
X14173
X14961
X15748
X16535
T03
X6429Y6539
X7429
X20130
X21130
Y7539
Y8539
Y9539
Y10539
Y11539
Y12539
Y13539
X20130
Y12539
Y11539
Y10539
Y9539
Y8539
Y7539
X7429
Y8539
Y9539
Y10539
Y11539
Y12539
Y13539
X6429
Y12539
Y11539
Y10539
Y9539
Y8539
Y7539
T04
X12291Y709
X13291
X14291
X15291
T05
X1850Y2382
X3819
X23740
X25709
Y7303
X23740
Y11594
X25709
Y16516
X23740
X3819
X1850
Y11594
X3819
Y7303
X1850
T06
X1063Y4843
X4606
X22953
X26496
Y14055
X22953
X4606
X1063
T07
X6929Y4528
X20630
Y15709
X6929Y15709
T08
X7756Y1378
X19803
X25591Y9449
X18150Y15906
X9409Y15906
X1969Y9449
M30
