G04*
G04 #@! TF.GenerationSoftware,Altium Limited,Altium Designer,22.3.1 (43)*
G04*
G04 Layer_Color=16711935*
%FSLAX25Y25*%
%MOIN*%
G70*
G04*
G04 #@! TF.SameCoordinates,0A308F34-88F0-47DF-8954-E72232A12325*
G04*
G04*
G04 #@! TF.FilePolarity,Negative*
G04*
G01*
G75*
%ADD29R,0.07284X0.07284*%
%ADD30C,0.07284*%
%ADD31C,0.07087*%
%ADD32R,0.05524X0.05524*%
%ADD33C,0.05524*%
%ADD34R,0.07296X0.07296*%
%ADD35C,0.07296*%
%ADD36R,0.06824X0.06824*%
%ADD37C,0.06824*%
%ADD38C,0.12611*%
%ADD39C,0.11627*%
%ADD40C,0.03162*%
D29*
X257087Y73032D02*
D03*
X237402Y115945D02*
D03*
X38189Y73032D02*
D03*
X18504Y115945D02*
D03*
D30*
X257087Y23819D02*
D03*
X237402Y73032D02*
D03*
Y23819D02*
D03*
X257087Y165157D02*
D03*
Y115945D02*
D03*
X237402Y165157D02*
D03*
X18504Y23819D02*
D03*
Y73032D02*
D03*
X38189Y23819D02*
D03*
Y165157D02*
D03*
Y115945D02*
D03*
X18504Y165157D02*
D03*
D31*
X264961Y48425D02*
D03*
X229528D02*
D03*
X264961Y140551D02*
D03*
X229528D02*
D03*
X10630Y48425D02*
D03*
X46063D02*
D03*
Y140551D02*
D03*
X10630D02*
D03*
D32*
X165354Y30709D02*
D03*
D33*
X157480D02*
D03*
X149606D02*
D03*
X141732D02*
D03*
X133858D02*
D03*
X125984D02*
D03*
X118110D02*
D03*
X110236D02*
D03*
D34*
X152913Y7087D02*
D03*
D35*
X142913D02*
D03*
X132913D02*
D03*
X122913D02*
D03*
D36*
X201299Y135394D02*
D03*
X64291D02*
D03*
D37*
X211299D02*
D03*
X201299Y125394D02*
D03*
X211299D02*
D03*
X201299Y115394D02*
D03*
X211299D02*
D03*
X201299Y105394D02*
D03*
X211299D02*
D03*
X201299Y95394D02*
D03*
X211299D02*
D03*
X201299Y85394D02*
D03*
X211299D02*
D03*
X201299Y75394D02*
D03*
X211299D02*
D03*
X201299Y65394D02*
D03*
X211299D02*
D03*
X74291Y135394D02*
D03*
X64291Y125394D02*
D03*
X74291D02*
D03*
X64291Y115394D02*
D03*
X74291D02*
D03*
X64291Y105394D02*
D03*
X74291D02*
D03*
X64291Y95394D02*
D03*
X74291D02*
D03*
X64291Y85394D02*
D03*
X74291D02*
D03*
X64291Y75394D02*
D03*
X74291D02*
D03*
X64291Y65394D02*
D03*
X74291D02*
D03*
D38*
X94095Y159055D02*
D03*
X198031Y13780D02*
D03*
X77559D02*
D03*
X181496Y159055D02*
D03*
X19685Y94488D02*
D03*
X255906D02*
D03*
D39*
X206299Y157087D02*
D03*
Y45276D02*
D03*
X69291D02*
D03*
Y157087D02*
D03*
D40*
X120866Y23228D02*
D03*
X119291Y114567D02*
D03*
Y122441D02*
D03*
X118898Y129921D02*
D03*
Y137795D02*
D03*
X219685Y87008D02*
D03*
X55512Y116535D02*
D03*
X107480Y104724D02*
D03*
X127953Y91732D02*
D03*
X126772Y45669D02*
D03*
X132677Y46457D02*
D03*
Y91732D02*
D03*
X146457Y116142D02*
D03*
X184646Y110236D02*
D03*
M02*
