G04*
G04 #@! TF.GenerationSoftware,Altium Limited,Altium Designer,22.3.1 (43)*
G04*
G04 Layer_Color=32896*
%FSLAX25Y25*%
%MOIN*%
G70*
G04*
G04 #@! TF.SameCoordinates,0A308F34-88F0-47DF-8954-E72232A12325*
G04*
G04*
G04 #@! TF.FilePolarity,Positive*
G04*
G01*
G75*
%ADD12C,0.00787*%
%ADD14C,0.01000*%
D12*
X201535Y144390D02*
X200748D01*
X201535D01*
X64528D02*
X63740D01*
X64528D01*
X169980Y26772D02*
Y30709D01*
X105610Y26772D02*
X169980D01*
X105610D02*
Y34646D01*
X165354D01*
X158602Y2087D02*
Y7087D01*
X117224Y2087D02*
X158602D01*
X117224D02*
Y12087D01*
X152913D01*
X196555Y59390D02*
X216043D01*
X196555D02*
Y141398D01*
X216043D01*
Y59390D02*
Y141398D01*
X59547Y59390D02*
X79035D01*
X59547D02*
Y141398D01*
X79035D01*
Y59390D02*
Y141398D01*
X225986Y117849D02*
Y119160D01*
Y118505D01*
X229265D01*
X229921Y119160D01*
Y119817D01*
X229265Y120473D01*
X225986Y116537D02*
X229921D01*
Y113913D01*
X226642Y109977D02*
X225986Y110633D01*
Y111945D01*
X226642Y112601D01*
X229265D01*
X229921Y111945D01*
Y110633D01*
X229265Y109977D01*
X225986Y106041D02*
Y107353D01*
Y106697D01*
X229265D01*
X229921Y107353D01*
Y108009D01*
X229265Y108665D01*
X225986Y104729D02*
X229921D01*
Y102106D01*
X226642Y98170D02*
X225986Y98826D01*
Y100138D01*
X226642Y100794D01*
X229265D01*
X229921Y100138D01*
Y98826D01*
X229265Y98170D01*
X225986Y94234D02*
Y95546D01*
Y94890D01*
X229265D01*
X229921Y95546D01*
Y96202D01*
X229265Y96858D01*
X225986Y92922D02*
X229921D01*
Y90298D01*
X226642Y86363D02*
X225986Y87019D01*
Y88331D01*
X226642Y88986D01*
X229265D01*
X229921Y88331D01*
Y87019D01*
X229265Y86363D01*
X225986Y82427D02*
Y83739D01*
Y83083D01*
X229265D01*
X229921Y83739D01*
Y84395D01*
X229265Y85051D01*
X225986Y81115D02*
X229921D01*
Y78491D01*
X226642Y74555D02*
X225986Y75211D01*
Y76523D01*
X226642Y77179D01*
X229265D01*
X229921Y76523D01*
Y75211D01*
X229265Y74555D01*
D14*
X141732Y100394D02*
Y165748D01*
X104331Y102362D02*
X171260D01*
X104331Y27559D02*
Y102362D01*
X171260Y27559D02*
Y102362D01*
X146060Y72846D02*
X146847Y73633D01*
X148422D01*
X149209Y72846D01*
Y69697D01*
X148422Y68910D01*
X146847D01*
X146060Y69697D01*
X141337Y72846D02*
X142124Y73633D01*
X143699D01*
X144486Y72846D01*
Y69697D01*
X143699Y68910D01*
X142124D01*
X141337Y69697D01*
X139763Y68910D02*
X138189D01*
X138976D01*
Y73633D01*
X139763Y72846D01*
X135827Y68910D02*
X134253D01*
X135040D01*
Y73633D01*
X135827Y72846D01*
X131892D02*
X131104Y73633D01*
X129530D01*
X128743Y72846D01*
Y69697D01*
X129530Y68910D01*
X131104D01*
X131892Y69697D01*
Y72846D01*
X127169Y68910D02*
X125594D01*
X126382D01*
Y73633D01*
X127169Y72846D01*
X161803Y60843D02*
Y65565D01*
X160229Y63991D01*
X158654Y65565D01*
Y60843D01*
X157080D02*
X155506D01*
X156293D01*
Y65565D01*
X157080Y64778D01*
X153145D02*
X152357Y65565D01*
X150783D01*
X149996Y64778D01*
Y61630D01*
X150783Y60843D01*
X152357D01*
X153145Y61630D01*
Y64778D01*
X145273Y65565D02*
X148422D01*
Y63204D01*
X146847Y63991D01*
X146060D01*
X145273Y63204D01*
Y61630D01*
X146060Y60843D01*
X147634D01*
X148422Y61630D01*
X138976Y60843D02*
Y63991D01*
X138189D01*
X137402Y63204D01*
Y60843D01*
Y63204D01*
X136614Y63991D01*
X135827Y63204D01*
Y60843D01*
X133466D02*
X131892D01*
X131104Y61630D01*
Y63204D01*
X131892Y63991D01*
X133466D01*
X134253Y63204D01*
Y61630D01*
X133466Y60843D01*
X126382Y65565D02*
Y60843D01*
X128743D01*
X129530Y61630D01*
Y63204D01*
X128743Y63991D01*
X126382D01*
X124807D02*
Y61630D01*
X124020Y60843D01*
X121659D01*
Y63991D01*
X120084Y60843D02*
X118510D01*
X119297D01*
Y65565D01*
X120084D01*
X113787Y60843D02*
X115361D01*
X116149Y61630D01*
Y63204D01*
X115361Y63991D01*
X113787D01*
X113000Y63204D01*
Y62417D01*
X116149D01*
X114959Y37009D02*
Y41732D01*
X112598D01*
X111811Y40944D01*
Y39370D01*
X112598Y38583D01*
X114959D01*
X107875Y37009D02*
Y41732D01*
X110237Y39370D01*
X107088D01*
X125983Y14568D02*
Y19291D01*
X123621D01*
X122834Y18503D01*
Y16929D01*
X123621Y16142D01*
X125983D01*
X121260Y18503D02*
X120473Y19291D01*
X118899D01*
X118112Y18503D01*
Y17716D01*
X118899Y16929D01*
X119686D01*
X118899D01*
X118112Y16142D01*
Y15355D01*
X118899Y14568D01*
X120473D01*
X121260Y15355D01*
X193700Y70077D02*
X188977D01*
Y67716D01*
X189764Y66929D01*
X191339D01*
X192126Y67716D01*
Y70077D01*
X193700Y62206D02*
Y65355D01*
X190551Y62206D01*
X189764D01*
X188977Y62993D01*
Y64567D01*
X189764Y65355D01*
X86220Y68109D02*
X81497D01*
Y65748D01*
X82284Y64961D01*
X83858D01*
X84645Y65748D01*
Y68109D01*
X86220Y63386D02*
Y61812D01*
Y62599D01*
X81497D01*
X82284Y63386D01*
M02*
