G04*
G04 #@! TF.GenerationSoftware,Altium Limited,Altium Designer,22.3.1 (43)*
G04*
G04 Layer_Physical_Order=2*
G04 Layer_Color=16711680*
%FSLAX25Y25*%
%MOIN*%
G70*
G04*
G04 #@! TF.SameCoordinates,0A308F34-88F0-47DF-8954-E72232A12325*
G04*
G04*
G04 #@! TF.FilePolarity,Positive*
G04*
G01*
G75*
%ADD29R,0.07284X0.07284*%
%ADD30C,0.07284*%
%ADD31C,0.07087*%
%ADD45C,0.01968*%
%ADD46C,0.01181*%
%ADD47R,0.04724X0.04724*%
%ADD48C,0.04724*%
%ADD49R,0.06496X0.06496*%
%ADD50C,0.06496*%
%ADD51R,0.06024X0.06024*%
%ADD52C,0.06024*%
%ADD53C,0.11811*%
%ADD54C,0.10827*%
%ADD55C,0.02362*%
G36*
X78740Y170866D02*
X198819D01*
X209055Y181102D01*
X272047D01*
X272047Y181102D01*
Y3150D01*
X156961D01*
Y11135D01*
X148865D01*
Y3150D01*
X145190D01*
X145056Y3650D01*
X145399Y3847D01*
X146153Y4601D01*
X146686Y5524D01*
X146961Y6554D01*
Y7620D01*
X146686Y8649D01*
X146153Y9572D01*
X145399Y10326D01*
X144476Y10859D01*
X143446Y11135D01*
X142380D01*
X141351Y10859D01*
X140428Y10326D01*
X139674Y9572D01*
X139141Y8649D01*
X138865Y7620D01*
Y6554D01*
X139141Y5524D01*
X139674Y4601D01*
X140428Y3847D01*
X140770Y3650D01*
X140636Y3150D01*
X135190D01*
X135056Y3650D01*
X135399Y3847D01*
X136153Y4601D01*
X136686Y5524D01*
X136961Y6554D01*
Y7620D01*
X136686Y8649D01*
X136153Y9572D01*
X135399Y10326D01*
X134476Y10859D01*
X133446Y11135D01*
X132380D01*
X131351Y10859D01*
X130428Y10326D01*
X129674Y9572D01*
X129141Y8649D01*
X128865Y7620D01*
Y6554D01*
X129141Y5524D01*
X129674Y4601D01*
X130428Y3847D01*
X130770Y3650D01*
X130636Y3150D01*
X3150D01*
Y182283D01*
X67323D01*
X78740Y170866D01*
D02*
G37*
%LPC*%
G36*
X257671Y169599D02*
X256502D01*
X255372Y169297D01*
X254359Y168712D01*
X253532Y167885D01*
X252948Y166872D01*
X252645Y165742D01*
Y164573D01*
X252948Y163443D01*
X253532Y162430D01*
X254359Y161603D01*
X255372Y161018D01*
X256502Y160716D01*
X257671D01*
X258801Y161018D01*
X259814Y161603D01*
X260641Y162430D01*
X261226Y163443D01*
X261528Y164573D01*
Y165742D01*
X261226Y166872D01*
X260641Y167885D01*
X259814Y168712D01*
X258801Y169297D01*
X257671Y169599D01*
D02*
G37*
G36*
X237986D02*
X236817D01*
X235687Y169297D01*
X234674Y168712D01*
X233847Y167885D01*
X233262Y166872D01*
X232960Y165742D01*
Y164573D01*
X233262Y163443D01*
X233847Y162430D01*
X234674Y161603D01*
X235687Y161018D01*
X236817Y160716D01*
X237986D01*
X239116Y161018D01*
X240129Y161603D01*
X240956Y162430D01*
X241541Y163443D01*
X241843Y164573D01*
Y165742D01*
X241541Y166872D01*
X240956Y167885D01*
X240129Y168712D01*
X239116Y169297D01*
X237986Y169599D01*
D02*
G37*
G36*
X38774D02*
X37604D01*
X36474Y169297D01*
X35462Y168712D01*
X34635Y167885D01*
X34050Y166872D01*
X33747Y165742D01*
Y164573D01*
X34050Y163443D01*
X34635Y162430D01*
X35462Y161603D01*
X36474Y161018D01*
X37604Y160716D01*
X38774D01*
X39903Y161018D01*
X40916Y161603D01*
X41743Y162430D01*
X42328Y163443D01*
X42631Y164573D01*
Y165742D01*
X42328Y166872D01*
X41743Y167885D01*
X40916Y168712D01*
X39903Y169297D01*
X38774Y169599D01*
D02*
G37*
G36*
X19089D02*
X17919D01*
X16790Y169297D01*
X15777Y168712D01*
X14950Y167885D01*
X14365Y166872D01*
X14062Y165742D01*
Y164573D01*
X14365Y163443D01*
X14950Y162430D01*
X15777Y161603D01*
X16790Y161018D01*
X17919Y160716D01*
X19089D01*
X20218Y161018D01*
X21231Y161603D01*
X22058Y162430D01*
X22643Y163443D01*
X22946Y164573D01*
Y165742D01*
X22643Y166872D01*
X22058Y167885D01*
X21231Y168712D01*
X20218Y169297D01*
X19089Y169599D01*
D02*
G37*
G36*
X94755Y165761D02*
X93434D01*
X92139Y165503D01*
X90918Y164997D01*
X89820Y164264D01*
X88886Y163330D01*
X88152Y162231D01*
X87647Y161011D01*
X87389Y159716D01*
Y158395D01*
X87647Y157099D01*
X88152Y155879D01*
X88886Y154781D01*
X89820Y153847D01*
X90918Y153113D01*
X92139Y152607D01*
X93434Y152350D01*
X94755D01*
X96050Y152607D01*
X97271Y153113D01*
X98369Y153847D01*
X99303Y154781D01*
X100037Y155879D01*
X100542Y157099D01*
X100800Y158395D01*
Y159716D01*
X100542Y161011D01*
X100037Y162231D01*
X99303Y163330D01*
X98369Y164264D01*
X97271Y164997D01*
X96050Y165503D01*
X94755Y165761D01*
D02*
G37*
G36*
X182157Y165761D02*
X180836D01*
X179540Y165503D01*
X178320Y164997D01*
X177222Y164264D01*
X176288Y163330D01*
X175554Y162231D01*
X175048Y161011D01*
X174791Y159716D01*
Y158395D01*
X175048Y157099D01*
X175554Y155879D01*
X176288Y154781D01*
X177222Y153847D01*
X178320Y153113D01*
X179540Y152607D01*
X180836Y152350D01*
X182157D01*
X183452Y152607D01*
X184672Y153113D01*
X185771Y153847D01*
X186705Y154781D01*
X187438Y155879D01*
X187944Y157099D01*
X188202Y158395D01*
Y159716D01*
X187944Y161011D01*
X187438Y162231D01*
X186705Y163330D01*
X185771Y164264D01*
X184672Y164997D01*
X183452Y165503D01*
X182157Y165761D01*
D02*
G37*
G36*
X69903Y163300D02*
X68679D01*
X67479Y163061D01*
X66348Y162593D01*
X65330Y161913D01*
X64465Y161047D01*
X63785Y160030D01*
X63317Y158899D01*
X63078Y157699D01*
Y156475D01*
X63317Y155274D01*
X63785Y154143D01*
X64465Y153126D01*
X65330Y152260D01*
X66348Y151580D01*
X67479Y151112D01*
X68679Y150873D01*
X69903D01*
X71104Y151112D01*
X72234Y151580D01*
X73252Y152260D01*
X74118Y153126D01*
X74798Y154143D01*
X75266Y155274D01*
X75505Y156475D01*
Y157699D01*
X75266Y158899D01*
X74798Y160030D01*
X74118Y161047D01*
X73252Y161913D01*
X72234Y162593D01*
X71104Y163061D01*
X69903Y163300D01*
D02*
G37*
G36*
X206911Y163300D02*
X205687D01*
X204487Y163061D01*
X203356Y162593D01*
X202338Y161913D01*
X201473Y161047D01*
X200793Y160030D01*
X200325Y158899D01*
X200086Y157699D01*
Y156475D01*
X200325Y155274D01*
X200793Y154143D01*
X201473Y153126D01*
X202338Y152260D01*
X203356Y151580D01*
X204487Y151112D01*
X205687Y150873D01*
X206911D01*
X208112Y151112D01*
X209242Y151580D01*
X210260Y152260D01*
X211126Y153126D01*
X211806Y154143D01*
X212274Y155274D01*
X212513Y156475D01*
Y157699D01*
X212274Y158899D01*
X211806Y160030D01*
X211126Y161047D01*
X210260Y161913D01*
X209242Y162593D01*
X208112Y163061D01*
X206911Y163300D01*
D02*
G37*
G36*
X265532Y144895D02*
X264389D01*
X263284Y144598D01*
X262294Y144027D01*
X261485Y143218D01*
X260913Y142228D01*
X260617Y141123D01*
Y139979D01*
X260913Y138875D01*
X261485Y137884D01*
X262294Y137076D01*
X263284Y136504D01*
X264389Y136208D01*
X265532D01*
X266637Y136504D01*
X267628Y137076D01*
X268436Y137884D01*
X269008Y138875D01*
X269304Y139979D01*
Y141123D01*
X269008Y142228D01*
X268436Y143218D01*
X267628Y144027D01*
X266637Y144598D01*
X265532Y144895D01*
D02*
G37*
G36*
X230099D02*
X228956D01*
X227851Y144598D01*
X226861Y144027D01*
X226052Y143218D01*
X225480Y142228D01*
X225184Y141123D01*
Y139979D01*
X225480Y138875D01*
X226052Y137884D01*
X226861Y137076D01*
X227851Y136504D01*
X228956Y136208D01*
X230099D01*
X231204Y136504D01*
X232194Y137076D01*
X233003Y137884D01*
X233575Y138875D01*
X233871Y139979D01*
Y141123D01*
X233575Y142228D01*
X233003Y143218D01*
X232194Y144027D01*
X231204Y144598D01*
X230099Y144895D01*
D02*
G37*
G36*
X46635D02*
X45491D01*
X44387Y144598D01*
X43396Y144027D01*
X42588Y143218D01*
X42016Y142228D01*
X41720Y141123D01*
Y139979D01*
X42016Y138875D01*
X42588Y137884D01*
X43396Y137076D01*
X44387Y136504D01*
X45491Y136208D01*
X46635D01*
X47739Y136504D01*
X48730Y137076D01*
X49538Y137884D01*
X50110Y138875D01*
X50406Y139979D01*
Y141123D01*
X50110Y142228D01*
X49538Y143218D01*
X48730Y144027D01*
X47739Y144598D01*
X46635Y144895D01*
D02*
G37*
G36*
X11202D02*
X10058D01*
X8953Y144598D01*
X7963Y144027D01*
X7154Y143218D01*
X6583Y142228D01*
X6287Y141123D01*
Y139979D01*
X6583Y138875D01*
X7154Y137884D01*
X7963Y137076D01*
X8953Y136504D01*
X10058Y136208D01*
X11202D01*
X12306Y136504D01*
X13297Y137076D01*
X14105Y137884D01*
X14677Y138875D01*
X14973Y139979D01*
Y141123D01*
X14677Y142228D01*
X14105Y143218D01*
X13297Y144027D01*
X12306Y144598D01*
X11202Y144895D01*
D02*
G37*
G36*
X211801Y139206D02*
X210797D01*
X209828Y138946D01*
X208959Y138444D01*
X208249Y137734D01*
X207747Y136865D01*
X207487Y135896D01*
Y134892D01*
X207747Y133922D01*
X208249Y133053D01*
X208959Y132343D01*
X209828Y131842D01*
X210797Y131582D01*
X211801D01*
X212771Y131842D01*
X213640Y132343D01*
X214349Y133053D01*
X214851Y133922D01*
X215111Y134892D01*
Y135896D01*
X214851Y136865D01*
X214349Y137734D01*
X213640Y138444D01*
X212771Y138946D01*
X211801Y139206D01*
D02*
G37*
G36*
X205111D02*
X197487D01*
Y131582D01*
X205111D01*
Y139206D01*
D02*
G37*
G36*
X74793D02*
X73790D01*
X72820Y138946D01*
X71951Y138444D01*
X71241Y137734D01*
X70739Y136865D01*
X70480Y135896D01*
Y134892D01*
X70739Y133922D01*
X71241Y133053D01*
X71951Y132343D01*
X72820Y131842D01*
X73790Y131582D01*
X74793D01*
X75763Y131842D01*
X76632Y132343D01*
X77342Y133053D01*
X77843Y133922D01*
X78103Y134892D01*
Y135896D01*
X77843Y136865D01*
X77342Y137734D01*
X76632Y138444D01*
X75763Y138946D01*
X74793Y139206D01*
D02*
G37*
G36*
X68103D02*
X60479D01*
Y131582D01*
X68103D01*
Y139206D01*
D02*
G37*
G36*
X119292Y139776D02*
X118504D01*
X117775Y139475D01*
X117218Y138918D01*
X117056Y138527D01*
X105743Y127213D01*
X77643D01*
X77342Y127734D01*
X76632Y128444D01*
X75763Y128946D01*
X74793Y129206D01*
X73790D01*
X72820Y128946D01*
X71951Y128444D01*
X71241Y127734D01*
X70739Y126865D01*
X70480Y125896D01*
Y124892D01*
X70739Y123922D01*
X71241Y123053D01*
X71503Y122792D01*
X71296Y122292D01*
X69966D01*
X67947Y124310D01*
X68103Y124892D01*
Y125896D01*
X67843Y126865D01*
X67342Y127734D01*
X66632Y128444D01*
X65763Y128946D01*
X64793Y129206D01*
X63789D01*
X62820Y128946D01*
X61951Y128444D01*
X61241Y127734D01*
X60739Y126865D01*
X60479Y125896D01*
Y124892D01*
X60739Y123922D01*
X61241Y123053D01*
X61951Y122344D01*
X62820Y121842D01*
X63789Y121582D01*
X64793D01*
X65375Y121738D01*
X67926Y119186D01*
X67926Y119186D01*
X68516Y118792D01*
X69213Y118653D01*
X71453D01*
X71660Y118153D01*
X71241Y117734D01*
X70739Y116865D01*
X70480Y115895D01*
Y114892D01*
X70739Y113922D01*
X71241Y113053D01*
X71739Y112555D01*
X71532Y112055D01*
X70202D01*
X67947Y114310D01*
X68103Y114892D01*
Y115895D01*
X67843Y116865D01*
X67342Y117734D01*
X66632Y118444D01*
X65763Y118946D01*
X64793Y119205D01*
X63789D01*
X63208Y119050D01*
X57743Y124515D01*
X57153Y124909D01*
X56457Y125048D01*
X56457Y125048D01*
X25787D01*
X25091Y124909D01*
X24501Y124515D01*
X24501Y124515D01*
X20373Y120387D01*
X14062D01*
Y111503D01*
X22946D01*
Y117814D01*
X26541Y121409D01*
X55703D01*
X60635Y116477D01*
X60479Y115895D01*
Y114892D01*
X60739Y113922D01*
X61241Y113053D01*
X61951Y112344D01*
X62820Y111842D01*
X63789Y111582D01*
X64793D01*
X65375Y111738D01*
X68162Y108950D01*
X68162Y108950D01*
X68753Y108555D01*
X69449Y108417D01*
X69449Y108417D01*
X71271D01*
X71462Y107955D01*
X71241Y107734D01*
X70739Y106865D01*
X70480Y105895D01*
Y104892D01*
X70739Y103922D01*
X71241Y103053D01*
X71951Y102343D01*
X72820Y101842D01*
X73790Y101582D01*
X74793D01*
X75763Y101842D01*
X76632Y102343D01*
X77342Y103053D01*
X77843Y103922D01*
X78103Y104892D01*
Y105895D01*
X77843Y106865D01*
X77342Y107734D01*
X77121Y107955D01*
X77312Y108417D01*
X114961D01*
X114961Y108417D01*
X115657Y108555D01*
X116247Y108950D01*
X120023Y112725D01*
X120413Y112887D01*
X120971Y113445D01*
X121272Y114173D01*
Y114961D01*
X120971Y115689D01*
X120413Y116246D01*
X119685Y116548D01*
X118897D01*
X118169Y116246D01*
X117612Y115689D01*
X117450Y115298D01*
X114207Y112055D01*
X77051D01*
X76844Y112555D01*
X77342Y113053D01*
X77643Y113575D01*
X112244D01*
X112244Y113575D01*
X112940Y113713D01*
X113531Y114107D01*
X119291Y119868D01*
X120256Y118903D01*
X120846Y118509D01*
X121543Y118370D01*
X121543Y118371D01*
X145354D01*
X145454Y117871D01*
X145334Y117821D01*
X144777Y117264D01*
X144476Y116536D01*
Y115748D01*
X144777Y115020D01*
X145334Y114462D01*
X146063Y114161D01*
X146851D01*
X147242Y114322D01*
X172869D01*
X188084Y99107D01*
X188084Y99107D01*
X188674Y98713D01*
X189370Y98575D01*
X189370Y98575D01*
X198382D01*
X198589Y98075D01*
X198249Y97734D01*
X197747Y96865D01*
X197487Y95895D01*
Y94892D01*
X197747Y93922D01*
X198249Y93053D01*
X198470Y92832D01*
X198278Y92370D01*
X188155D01*
X183845Y96680D01*
X183255Y97074D01*
X182559Y97213D01*
X182559Y97213D01*
X77643D01*
X77342Y97734D01*
X76632Y98444D01*
X75763Y98946D01*
X74793Y99205D01*
X73790D01*
X72820Y98946D01*
X71951Y98444D01*
X71241Y97734D01*
X70739Y96865D01*
X70480Y95895D01*
Y94892D01*
X70739Y93922D01*
X71241Y93053D01*
X71951Y92343D01*
X72820Y91842D01*
X73790Y91582D01*
X74793D01*
X75763Y91842D01*
X76632Y92343D01*
X77342Y93053D01*
X77643Y93575D01*
X131011D01*
X131218Y93075D01*
X130998Y92854D01*
X130696Y92126D01*
Y91338D01*
X130858Y90947D01*
Y72429D01*
X77371D01*
X77180Y72891D01*
X77342Y73053D01*
X77843Y73922D01*
X78103Y74892D01*
Y75896D01*
X77843Y76865D01*
X77342Y77734D01*
X76632Y78444D01*
X75763Y78946D01*
X74793Y79206D01*
X73790D01*
X72820Y78946D01*
X71951Y78444D01*
X71241Y77734D01*
X70739Y76865D01*
X70480Y75896D01*
Y74892D01*
X70739Y73922D01*
X71241Y73053D01*
X71403Y72891D01*
X71212Y72429D01*
X69828D01*
X67947Y74310D01*
X68103Y74892D01*
Y75896D01*
X67843Y76865D01*
X67342Y77734D01*
X66632Y78444D01*
X65763Y78946D01*
X64793Y79206D01*
X63789D01*
X62820Y78946D01*
X61951Y78444D01*
X61241Y77734D01*
X60739Y76865D01*
X60479Y75896D01*
Y74892D01*
X60739Y73922D01*
X61241Y73053D01*
X61951Y72343D01*
X62820Y71842D01*
X63789Y71582D01*
X64793D01*
X65375Y71738D01*
X67788Y69324D01*
X67788Y69324D01*
X68379Y68929D01*
X69075Y68791D01*
X71591D01*
X71798Y68291D01*
X71241Y67734D01*
X70739Y66865D01*
X70480Y65895D01*
Y64892D01*
X70739Y63922D01*
X71241Y63053D01*
X71951Y62344D01*
X72820Y61842D01*
X73790Y61582D01*
X74793D01*
X75763Y61842D01*
X76632Y62344D01*
X77342Y63053D01*
X77843Y63922D01*
X78103Y64892D01*
Y65895D01*
X77843Y66865D01*
X77342Y67734D01*
X76785Y68291D01*
X76992Y68791D01*
X130858D01*
Y47242D01*
X130696Y46851D01*
Y46063D01*
X130998Y45335D01*
X131555Y44777D01*
X132283Y44476D01*
X133071D01*
X133462Y44638D01*
X148853D01*
X162192Y31298D01*
Y27547D01*
X168517D01*
Y33871D01*
X164765D01*
X150893Y47743D01*
X150303Y48137D01*
X149606Y48276D01*
X149606Y48276D01*
X134496D01*
Y68791D01*
X196516D01*
X196516Y68791D01*
X197212Y68929D01*
X197802Y69324D01*
X200216Y71738D01*
X200797Y71582D01*
X201801D01*
X202770Y71842D01*
X203640Y72343D01*
X204349Y73053D01*
X204851Y73922D01*
X205111Y74892D01*
Y75896D01*
X204851Y76865D01*
X204349Y77734D01*
X203640Y78444D01*
X202770Y78946D01*
X201801Y79206D01*
X200797D01*
X199828Y78946D01*
X198959Y78444D01*
X198249Y77734D01*
X197747Y76865D01*
X197487Y75896D01*
Y74892D01*
X197643Y74310D01*
X195762Y72429D01*
X134496D01*
Y90947D01*
X134658Y91338D01*
Y92126D01*
X134357Y92854D01*
X134137Y93075D01*
X134344Y93575D01*
X181806D01*
X186115Y89265D01*
X186115Y89265D01*
X186705Y88871D01*
X187402Y88732D01*
X187402Y88732D01*
X198540D01*
X198747Y88232D01*
X198249Y87734D01*
X197747Y86865D01*
X197487Y85896D01*
Y84892D01*
X197747Y83922D01*
X198249Y83053D01*
X198959Y82344D01*
X199828Y81842D01*
X200797Y81582D01*
X201801D01*
X202770Y81842D01*
X203640Y82344D01*
X204349Y83053D01*
X204851Y83922D01*
X205111Y84892D01*
Y85896D01*
X204851Y86865D01*
X204349Y87734D01*
X203852Y88232D01*
X204059Y88732D01*
X208540D01*
X208747Y88232D01*
X208249Y87734D01*
X207747Y86865D01*
X207487Y85896D01*
Y84892D01*
X207747Y83922D01*
X208249Y83053D01*
X208959Y82344D01*
X209828Y81842D01*
X210797Y81582D01*
X211801D01*
X212771Y81842D01*
X213640Y82344D01*
X214349Y83053D01*
X214851Y83922D01*
X215111Y84892D01*
Y85896D01*
X214851Y86865D01*
X214349Y87734D01*
X213852Y88232D01*
X214059Y88732D01*
X216176D01*
X217704Y87204D01*
Y86614D01*
X218005Y85886D01*
X218563Y85328D01*
X219291Y85027D01*
X220079D01*
X220807Y85328D01*
X221364Y85886D01*
X221666Y86614D01*
Y87402D01*
X221504Y87793D01*
Y87795D01*
X221504Y87795D01*
X221366Y88491D01*
X220971Y89082D01*
X220971Y89082D01*
X218215Y91838D01*
X217625Y92232D01*
X216929Y92370D01*
X216929Y92370D01*
X214320D01*
X214129Y92832D01*
X214349Y93053D01*
X214851Y93922D01*
X215111Y94892D01*
Y95895D01*
X214851Y96865D01*
X214349Y97734D01*
X214009Y98075D01*
X214216Y98575D01*
X228971D01*
X252645Y74901D01*
Y68590D01*
X261528D01*
Y77473D01*
X255218D01*
X231011Y101680D01*
X230421Y102074D01*
X229724Y102213D01*
X229724Y102213D01*
X214216D01*
X214009Y102713D01*
X214349Y103053D01*
X214851Y103922D01*
X215111Y104892D01*
Y105895D01*
X214851Y106865D01*
X214349Y107734D01*
X213640Y108444D01*
X212771Y108946D01*
X211801Y109205D01*
X210797D01*
X209828Y108946D01*
X208959Y108444D01*
X208249Y107734D01*
X207747Y106865D01*
X207487Y105895D01*
Y104892D01*
X207747Y103922D01*
X208249Y103053D01*
X208589Y102713D01*
X208382Y102213D01*
X204216D01*
X204009Y102713D01*
X204349Y103053D01*
X204851Y103922D01*
X205111Y104892D01*
Y105895D01*
X204851Y106865D01*
X204349Y107734D01*
X203640Y108444D01*
X202770Y108946D01*
X201801Y109205D01*
X200797D01*
X199828Y108946D01*
X198959Y108444D01*
X198249Y107734D01*
X197747Y106865D01*
X197487Y105895D01*
Y104892D01*
X197747Y103922D01*
X198249Y103053D01*
X198589Y102713D01*
X198382Y102213D01*
X190124D01*
X184581Y107755D01*
X184789Y108255D01*
X185040D01*
X185768Y108557D01*
X186030Y108818D01*
X196142D01*
X196684Y108926D01*
X197144Y109234D01*
X199780Y111869D01*
X199828Y111842D01*
X200797Y111582D01*
X201801D01*
X202770Y111842D01*
X203640Y112344D01*
X204349Y113053D01*
X204851Y113922D01*
X205111Y114892D01*
Y115895D01*
X204851Y116865D01*
X204349Y117734D01*
X204175Y117909D01*
X204366Y118371D01*
X208232D01*
X208423Y117909D01*
X208249Y117734D01*
X207747Y116865D01*
X207487Y115895D01*
Y114892D01*
X207747Y113922D01*
X208249Y113053D01*
X208959Y112344D01*
X209828Y111842D01*
X210797Y111582D01*
X211801D01*
X212771Y111842D01*
X213640Y112344D01*
X214349Y113053D01*
X214851Y113922D01*
X215111Y114892D01*
Y115895D01*
X214851Y116865D01*
X214349Y117734D01*
X214286Y117798D01*
X214477Y118260D01*
X218538D01*
X222139Y114658D01*
X222729Y114264D01*
X223425Y114126D01*
X223425Y114126D01*
X232960D01*
Y111503D01*
X241843D01*
Y120387D01*
X232960D01*
Y117764D01*
X224179D01*
X220578Y121365D01*
X219988Y121759D01*
X219291Y121898D01*
X219291Y121898D01*
X213844D01*
X213777Y122043D01*
X213727Y122431D01*
X214349Y123053D01*
X214851Y123922D01*
X215111Y124892D01*
Y125896D01*
X214851Y126865D01*
X214349Y127734D01*
X213640Y128444D01*
X212771Y128946D01*
X211801Y129206D01*
X210797D01*
X209828Y128946D01*
X208959Y128444D01*
X208249Y127734D01*
X207747Y126865D01*
X207487Y125896D01*
Y124892D01*
X207747Y123922D01*
X208249Y123053D01*
X208793Y122509D01*
X208586Y122009D01*
X204012D01*
X203805Y122509D01*
X204349Y123053D01*
X204851Y123922D01*
X205111Y124892D01*
Y125896D01*
X204851Y126865D01*
X204349Y127734D01*
X203640Y128444D01*
X202770Y128946D01*
X201801Y129206D01*
X200797D01*
X199828Y128946D01*
X198959Y128444D01*
X198249Y127734D01*
X197747Y126865D01*
X197487Y125896D01*
Y124892D01*
X197747Y123922D01*
X198249Y123053D01*
X198793Y122509D01*
X198586Y122009D01*
X122296D01*
X121133Y123172D01*
X120971Y123563D01*
X120413Y124120D01*
X119685Y124422D01*
X118897D01*
X118169Y124120D01*
X117612Y123563D01*
X117450Y123172D01*
X111491Y117213D01*
X77643D01*
X77342Y117734D01*
X76923Y118153D01*
X77130Y118653D01*
X109449D01*
X109449Y118653D01*
X110145Y118792D01*
X110735Y119186D01*
X119629Y128080D01*
X120020Y128242D01*
X120577Y128799D01*
X120879Y129527D01*
Y130315D01*
X120577Y131044D01*
X120020Y131601D01*
X119292Y131902D01*
X118504D01*
X117775Y131601D01*
X117218Y131044D01*
X117056Y130653D01*
X108695Y122292D01*
X77287D01*
X77080Y122792D01*
X77342Y123053D01*
X77643Y123574D01*
X106496D01*
X106496Y123574D01*
X107192Y123713D01*
X107782Y124107D01*
X119629Y135954D01*
X120020Y136116D01*
X120577Y136673D01*
X120879Y137401D01*
Y138189D01*
X120577Y138918D01*
X120020Y139475D01*
X119292Y139776D01*
D02*
G37*
G36*
X64793Y109205D02*
X63789D01*
X62820Y108946D01*
X61951Y108444D01*
X61241Y107734D01*
X60739Y106865D01*
X60479Y105895D01*
Y104892D01*
X60739Y103922D01*
X61241Y103053D01*
X61951Y102343D01*
X62820Y101842D01*
X63789Y101582D01*
X64793D01*
X65763Y101842D01*
X66632Y102343D01*
X67342Y103053D01*
X67843Y103922D01*
X68103Y104892D01*
Y105895D01*
X67843Y106865D01*
X67342Y107734D01*
X66632Y108444D01*
X65763Y108946D01*
X64793Y109205D01*
D02*
G37*
G36*
Y99205D02*
X63789D01*
X62820Y98946D01*
X61951Y98444D01*
X61241Y97734D01*
X60739Y96865D01*
X60479Y95895D01*
Y94892D01*
X60739Y93922D01*
X61241Y93053D01*
X61951Y92343D01*
X62820Y91842D01*
X63789Y91582D01*
X64793D01*
X65763Y91842D01*
X66632Y92343D01*
X67342Y93053D01*
X67843Y93922D01*
X68103Y94892D01*
Y95895D01*
X67843Y96865D01*
X67342Y97734D01*
X66632Y98444D01*
X65763Y98946D01*
X64793Y99205D01*
D02*
G37*
G36*
X256566Y101194D02*
X255245D01*
X253950Y100936D01*
X252729Y100431D01*
X251631Y99697D01*
X250697Y98763D01*
X249963Y97664D01*
X249458Y96444D01*
X249200Y95149D01*
Y93828D01*
X249458Y92532D01*
X249963Y91312D01*
X250697Y90214D01*
X251631Y89280D01*
X252729Y88546D01*
X253950Y88040D01*
X255245Y87783D01*
X256566D01*
X257861Y88040D01*
X259082Y88546D01*
X260180Y89280D01*
X261114Y90214D01*
X261848Y91312D01*
X262353Y92532D01*
X262611Y93828D01*
Y95149D01*
X262353Y96444D01*
X261848Y97664D01*
X261114Y98763D01*
X260180Y99697D01*
X259082Y100431D01*
X257861Y100936D01*
X256566Y101194D01*
D02*
G37*
G36*
X20346D02*
X19025D01*
X17729Y100936D01*
X16509Y100431D01*
X15410Y99697D01*
X14477Y98763D01*
X13743Y97664D01*
X13237Y96444D01*
X12979Y95149D01*
Y93828D01*
X13237Y92532D01*
X13743Y91312D01*
X14477Y90214D01*
X15410Y89280D01*
X16509Y88546D01*
X17729Y88040D01*
X19025Y87783D01*
X20346D01*
X21641Y88040D01*
X22861Y88546D01*
X23960Y89280D01*
X24893Y90214D01*
X25627Y91312D01*
X26133Y92532D01*
X26391Y93828D01*
Y95149D01*
X26133Y96444D01*
X25627Y97664D01*
X24893Y98763D01*
X23960Y99697D01*
X22861Y100431D01*
X21641Y100936D01*
X20346Y101194D01*
D02*
G37*
G36*
X74793Y89205D02*
X73790D01*
X72820Y88946D01*
X71951Y88444D01*
X71241Y87734D01*
X70739Y86865D01*
X70480Y85896D01*
Y84892D01*
X70739Y83922D01*
X71241Y83053D01*
X71951Y82344D01*
X72820Y81842D01*
X73790Y81582D01*
X74793D01*
X75763Y81842D01*
X76632Y82344D01*
X77342Y83053D01*
X77843Y83922D01*
X78103Y84892D01*
Y85896D01*
X77843Y86865D01*
X77342Y87734D01*
X76632Y88444D01*
X75763Y88946D01*
X74793Y89205D01*
D02*
G37*
G36*
X64793D02*
X63789D01*
X62820Y88946D01*
X61951Y88444D01*
X61241Y87734D01*
X60739Y86865D01*
X60479Y85896D01*
Y84892D01*
X60739Y83922D01*
X61241Y83053D01*
X61951Y82344D01*
X62820Y81842D01*
X63789Y81582D01*
X64793D01*
X65763Y81842D01*
X66632Y82344D01*
X67342Y83053D01*
X67843Y83922D01*
X68103Y84892D01*
Y85896D01*
X67843Y86865D01*
X67342Y87734D01*
X66632Y88444D01*
X65763Y88946D01*
X64793Y89205D01*
D02*
G37*
G36*
X211801Y79206D02*
X210797D01*
X209828Y78946D01*
X208959Y78444D01*
X208249Y77734D01*
X207747Y76865D01*
X207487Y75896D01*
Y74892D01*
X207747Y73922D01*
X208249Y73053D01*
X208959Y72343D01*
X209828Y71842D01*
X210797Y71582D01*
X211801D01*
X212771Y71842D01*
X213640Y72343D01*
X214349Y73053D01*
X214851Y73922D01*
X215111Y74892D01*
Y75896D01*
X214851Y76865D01*
X214349Y77734D01*
X213640Y78444D01*
X212771Y78946D01*
X211801Y79206D01*
D02*
G37*
G36*
X55906Y118517D02*
X55118D01*
X54390Y118215D01*
X53832Y117658D01*
X53531Y116929D01*
Y116141D01*
X53693Y115751D01*
Y91108D01*
X40058Y77473D01*
X33747D01*
Y68590D01*
X42631D01*
Y74901D01*
X56798Y89068D01*
X56798Y89068D01*
X57192Y89658D01*
X57331Y90354D01*
X57331Y90354D01*
Y115751D01*
X57493Y116141D01*
Y116929D01*
X57191Y117658D01*
X56634Y118215D01*
X55906Y118517D01*
D02*
G37*
G36*
X211801Y69205D02*
X210797D01*
X209828Y68946D01*
X208959Y68444D01*
X208249Y67734D01*
X207747Y66865D01*
X207487Y65895D01*
Y64892D01*
X207747Y63922D01*
X208249Y63053D01*
X208959Y62344D01*
X209828Y61842D01*
X210797Y61582D01*
X211801D01*
X212771Y61842D01*
X213640Y62344D01*
X214349Y63053D01*
X214851Y63922D01*
X215111Y64892D01*
Y65895D01*
X214851Y66865D01*
X214349Y67734D01*
X213640Y68444D01*
X212771Y68946D01*
X211801Y69205D01*
D02*
G37*
G36*
X265532Y52768D02*
X264389D01*
X263284Y52473D01*
X262294Y51901D01*
X261485Y51092D01*
X260913Y50102D01*
X260617Y48997D01*
Y47853D01*
X260913Y46749D01*
X261485Y45758D01*
X262294Y44950D01*
X263284Y44378D01*
X264389Y44082D01*
X265532D01*
X266637Y44378D01*
X267628Y44950D01*
X268436Y45758D01*
X269008Y46749D01*
X269304Y47853D01*
Y48997D01*
X269008Y50102D01*
X268436Y51092D01*
X267628Y51901D01*
X266637Y52473D01*
X265532Y52768D01*
D02*
G37*
G36*
X230099D02*
X228956D01*
X227851Y52473D01*
X226861Y51901D01*
X226052Y51092D01*
X225480Y50102D01*
X225184Y48997D01*
Y47853D01*
X225480Y46749D01*
X226052Y45758D01*
X226861Y44950D01*
X227851Y44378D01*
X228956Y44082D01*
X230099D01*
X231204Y44378D01*
X232194Y44950D01*
X233003Y45758D01*
X233575Y46749D01*
X233871Y47853D01*
Y48997D01*
X233575Y50102D01*
X233003Y51092D01*
X232194Y51901D01*
X231204Y52473D01*
X230099Y52768D01*
D02*
G37*
G36*
X46635D02*
X45491D01*
X44387Y52473D01*
X43396Y51901D01*
X42588Y51092D01*
X42016Y50102D01*
X41720Y48997D01*
Y47853D01*
X42016Y46749D01*
X42588Y45758D01*
X43396Y44950D01*
X44387Y44378D01*
X45491Y44082D01*
X46635D01*
X47739Y44378D01*
X48730Y44950D01*
X49538Y45758D01*
X50110Y46749D01*
X50406Y47853D01*
Y48997D01*
X50110Y50102D01*
X49538Y51092D01*
X48730Y51901D01*
X47739Y52473D01*
X46635Y52768D01*
D02*
G37*
G36*
X11202D02*
X10058D01*
X8953Y52473D01*
X7963Y51901D01*
X7154Y51092D01*
X6583Y50102D01*
X6287Y48997D01*
Y47853D01*
X6583Y46749D01*
X7154Y45758D01*
X7963Y44950D01*
X8953Y44378D01*
X10058Y44082D01*
X11202D01*
X12306Y44378D01*
X13297Y44950D01*
X14105Y45758D01*
X14677Y46749D01*
X14973Y47853D01*
Y48997D01*
X14677Y50102D01*
X14105Y51092D01*
X13297Y51901D01*
X12306Y52473D01*
X11202Y52768D01*
D02*
G37*
G36*
X206911Y51489D02*
X205687D01*
X204487Y51250D01*
X203356Y50782D01*
X202338Y50102D01*
X201473Y49237D01*
X200793Y48219D01*
X200325Y47088D01*
X200086Y45888D01*
Y44664D01*
X200325Y43463D01*
X200793Y42332D01*
X201473Y41315D01*
X202338Y40449D01*
X203356Y39769D01*
X204487Y39301D01*
X205687Y39062D01*
X206911D01*
X208112Y39301D01*
X209242Y39769D01*
X210260Y40449D01*
X211126Y41315D01*
X211806Y42332D01*
X212274Y43463D01*
X212513Y44664D01*
Y45888D01*
X212274Y47088D01*
X211806Y48219D01*
X211126Y49237D01*
X210260Y50102D01*
X209242Y50782D01*
X208112Y51250D01*
X206911Y51489D01*
D02*
G37*
G36*
X69903D02*
X68679D01*
X67479Y51250D01*
X66348Y50782D01*
X65330Y50102D01*
X64465Y49237D01*
X63785Y48219D01*
X63317Y47088D01*
X63078Y45888D01*
Y44664D01*
X63317Y43463D01*
X63785Y42332D01*
X64465Y41315D01*
X65330Y40449D01*
X66348Y39769D01*
X67479Y39301D01*
X68679Y39062D01*
X69903D01*
X71104Y39301D01*
X72234Y39769D01*
X73252Y40449D01*
X74118Y41315D01*
X74798Y42332D01*
X75266Y43463D01*
X75505Y44664D01*
Y45888D01*
X75266Y47088D01*
X74798Y48219D01*
X74118Y49237D01*
X73252Y50102D01*
X72234Y50782D01*
X71104Y51250D01*
X69903Y51489D01*
D02*
G37*
G36*
X150023Y33871D02*
X149190D01*
X148386Y33655D01*
X147665Y33239D01*
X147076Y32650D01*
X146660Y31929D01*
X146444Y31125D01*
Y30292D01*
X146660Y29488D01*
X147076Y28767D01*
X147665Y28178D01*
X148386Y27762D01*
X149190Y27547D01*
X150023D01*
X150827Y27762D01*
X151548Y28178D01*
X152137Y28767D01*
X152553Y29488D01*
X152769Y30292D01*
Y31125D01*
X152553Y31929D01*
X152137Y32650D01*
X151548Y33239D01*
X150827Y33655D01*
X150023Y33871D01*
D02*
G37*
G36*
X142149D02*
X141316D01*
X140512Y33655D01*
X139791Y33239D01*
X139202Y32650D01*
X138786Y31929D01*
X138570Y31125D01*
Y30292D01*
X138786Y29488D01*
X139202Y28767D01*
X139791Y28178D01*
X140512Y27762D01*
X141316Y27547D01*
X142149D01*
X142953Y27762D01*
X143674Y28178D01*
X144263Y28767D01*
X144679Y29488D01*
X144895Y30292D01*
Y31125D01*
X144679Y31929D01*
X144263Y32650D01*
X143674Y33239D01*
X142953Y33655D01*
X142149Y33871D01*
D02*
G37*
G36*
X134275D02*
X133442D01*
X132638Y33655D01*
X131917Y33239D01*
X131328Y32650D01*
X130912Y31929D01*
X130696Y31125D01*
Y30292D01*
X130912Y29488D01*
X131328Y28767D01*
X131917Y28178D01*
X132638Y27762D01*
X133442Y27547D01*
X134275D01*
X135079Y27762D01*
X135800Y28178D01*
X136389Y28767D01*
X136805Y29488D01*
X137021Y30292D01*
Y31125D01*
X136805Y31929D01*
X136389Y32650D01*
X135800Y33239D01*
X135079Y33655D01*
X134275Y33871D01*
D02*
G37*
G36*
X126401D02*
X125568D01*
X124764Y33655D01*
X124043Y33239D01*
X123454Y32650D01*
X123038Y31929D01*
X122822Y31125D01*
Y30292D01*
X122859Y30156D01*
X119655Y26952D01*
X119261Y26362D01*
X119122Y25666D01*
X119122Y25666D01*
Y24195D01*
X118885Y23622D01*
Y22834D01*
X119187Y22106D01*
X119744Y21549D01*
X120472Y21247D01*
X121260D01*
X121988Y21549D01*
X122546Y22106D01*
X122847Y22834D01*
Y23622D01*
X122761Y23831D01*
Y24912D01*
X125431Y27583D01*
X125568Y27547D01*
X126401D01*
X127205Y27762D01*
X127926Y28178D01*
X128515Y28767D01*
X128931Y29488D01*
X129147Y30292D01*
Y31125D01*
X128931Y31929D01*
X128515Y32650D01*
X127926Y33239D01*
X127205Y33655D01*
X126401Y33871D01*
D02*
G37*
G36*
X118526D02*
X117694D01*
X116890Y33655D01*
X116169Y33239D01*
X115580Y32650D01*
X115164Y31929D01*
X114948Y31125D01*
Y30292D01*
X115164Y29488D01*
X115580Y28767D01*
X116169Y28178D01*
X116890Y27762D01*
X117694Y27547D01*
X118526D01*
X119331Y27762D01*
X120052Y28178D01*
X120641Y28767D01*
X121057Y29488D01*
X121272Y30292D01*
Y31125D01*
X121057Y31929D01*
X120641Y32650D01*
X120052Y33239D01*
X119331Y33655D01*
X118526Y33871D01*
D02*
G37*
G36*
X110652D02*
X109820D01*
X109016Y33655D01*
X108295Y33239D01*
X107706Y32650D01*
X107290Y31929D01*
X107074Y31125D01*
Y30292D01*
X107290Y29488D01*
X107706Y28767D01*
X108295Y28178D01*
X109016Y27762D01*
X109820Y27547D01*
X110652D01*
X111457Y27762D01*
X112178Y28178D01*
X112767Y28767D01*
X113183Y29488D01*
X113398Y30292D01*
Y31125D01*
X113183Y31929D01*
X112767Y32650D01*
X112178Y33239D01*
X111457Y33655D01*
X110652Y33871D01*
D02*
G37*
G36*
X257671Y28261D02*
X256502D01*
X255372Y27958D01*
X254359Y27373D01*
X253532Y26546D01*
X252948Y25533D01*
X252645Y24404D01*
Y23234D01*
X252948Y22105D01*
X253532Y21092D01*
X254359Y20265D01*
X255372Y19680D01*
X256502Y19377D01*
X257671D01*
X258801Y19680D01*
X259814Y20265D01*
X260641Y21092D01*
X261226Y22105D01*
X261528Y23234D01*
Y24404D01*
X261226Y25533D01*
X260641Y26546D01*
X259814Y27373D01*
X258801Y27958D01*
X257671Y28261D01*
D02*
G37*
G36*
X237986D02*
X236817D01*
X235687Y27958D01*
X234674Y27373D01*
X233847Y26546D01*
X233262Y25533D01*
X232960Y24404D01*
Y23234D01*
X233262Y22105D01*
X233847Y21092D01*
X234674Y20265D01*
X235687Y19680D01*
X236817Y19377D01*
X237986D01*
X239116Y19680D01*
X240129Y20265D01*
X240956Y21092D01*
X241541Y22105D01*
X241843Y23234D01*
Y24404D01*
X241541Y25533D01*
X240956Y26546D01*
X240129Y27373D01*
X239116Y27958D01*
X237986Y28261D01*
D02*
G37*
G36*
X38774D02*
X37604D01*
X36474Y27958D01*
X35462Y27373D01*
X34635Y26546D01*
X34050Y25533D01*
X33747Y24404D01*
Y23234D01*
X34050Y22105D01*
X34635Y21092D01*
X35462Y20265D01*
X36474Y19680D01*
X37604Y19377D01*
X38774D01*
X39903Y19680D01*
X40916Y20265D01*
X41743Y21092D01*
X42328Y22105D01*
X42631Y23234D01*
Y24404D01*
X42328Y25533D01*
X41743Y26546D01*
X40916Y27373D01*
X39903Y27958D01*
X38774Y28261D01*
D02*
G37*
G36*
X19089D02*
X17919D01*
X16790Y27958D01*
X15777Y27373D01*
X14950Y26546D01*
X14365Y25533D01*
X14062Y24404D01*
Y23234D01*
X14365Y22105D01*
X14950Y21092D01*
X15777Y20265D01*
X16790Y19680D01*
X17919Y19377D01*
X19089D01*
X20218Y19680D01*
X21231Y20265D01*
X22058Y21092D01*
X22643Y22105D01*
X22946Y23234D01*
Y24404D01*
X22643Y25533D01*
X22058Y26546D01*
X21231Y27373D01*
X20218Y27958D01*
X19089Y28261D01*
D02*
G37*
G36*
X198692Y20485D02*
X197371D01*
X196076Y20227D01*
X194855Y19722D01*
X193757Y18988D01*
X192823Y18054D01*
X192089Y16956D01*
X191584Y15735D01*
X191326Y14440D01*
Y13119D01*
X191584Y11824D01*
X192089Y10603D01*
X192823Y9505D01*
X193757Y8571D01*
X194855Y7837D01*
X196076Y7332D01*
X197371Y7074D01*
X198692D01*
X199987Y7332D01*
X201208Y7837D01*
X202306Y8571D01*
X203240Y9505D01*
X203974Y10603D01*
X204479Y11824D01*
X204737Y13119D01*
Y14440D01*
X204479Y15735D01*
X203974Y16956D01*
X203240Y18054D01*
X202306Y18988D01*
X201208Y19722D01*
X199987Y20227D01*
X198692Y20485D01*
D02*
G37*
G36*
X78219D02*
X76899D01*
X75603Y20227D01*
X74383Y19722D01*
X73285Y18988D01*
X72351Y18054D01*
X71617Y16956D01*
X71111Y15735D01*
X70854Y14440D01*
Y13119D01*
X71111Y11824D01*
X71617Y10603D01*
X72351Y9505D01*
X73285Y8571D01*
X74383Y7837D01*
X75603Y7332D01*
X76899Y7074D01*
X78219D01*
X79515Y7332D01*
X80735Y7837D01*
X81834Y8571D01*
X82768Y9505D01*
X83501Y10603D01*
X84007Y11824D01*
X84265Y13119D01*
Y14440D01*
X84007Y15735D01*
X83501Y16956D01*
X82768Y18054D01*
X81834Y18988D01*
X80735Y19722D01*
X79515Y20227D01*
X78219Y20485D01*
D02*
G37*
%LPD*%
D29*
X257087Y73032D02*
D03*
X237402Y115945D02*
D03*
X38189Y73032D02*
D03*
X18504Y115945D02*
D03*
D30*
X257087Y23819D02*
D03*
X237402Y73032D02*
D03*
Y23819D02*
D03*
X257087Y165157D02*
D03*
Y115945D02*
D03*
X237402Y165157D02*
D03*
X18504Y23819D02*
D03*
Y73032D02*
D03*
X38189Y23819D02*
D03*
Y165157D02*
D03*
Y115945D02*
D03*
X18504Y165157D02*
D03*
D31*
X264961Y48425D02*
D03*
X229528D02*
D03*
X264961Y140551D02*
D03*
X229528D02*
D03*
X10630Y48425D02*
D03*
X46063D02*
D03*
Y140551D02*
D03*
X10630D02*
D03*
D45*
X64291Y75394D02*
X69075Y70610D01*
X132677D01*
Y91732D01*
Y46457D02*
Y70610D01*
X119291Y122441D02*
X121543Y120190D01*
X213286D01*
X213397Y120079D01*
X219291D01*
X69213Y120472D02*
X109449D01*
X64291Y125394D02*
X69213Y120472D01*
X109449D02*
X118898Y129921D01*
X69449Y110236D02*
X114961D01*
X119291Y114567D01*
X64291Y115394D02*
X69449Y110236D01*
X120866Y23228D02*
X120941Y23304D01*
Y25666D01*
X74291Y115394D02*
X112244D01*
X119291Y122441D01*
X74291Y125394D02*
X106496D01*
X118898Y137795D01*
X219685Y87008D02*
Y87795D01*
X216929Y90551D02*
X219685Y87795D01*
X187402Y90551D02*
X216929D01*
X182559Y95394D02*
X187402Y90551D01*
X74291Y95394D02*
X182559D01*
X38189Y73032D02*
X55512Y90354D01*
Y116535D01*
X149606Y46457D02*
X165354Y30709D01*
X132677Y46457D02*
X149606D01*
X132677Y70610D02*
X196516D01*
X201299Y75394D01*
X145839Y19067D02*
X157480Y30709D01*
X134894Y19067D02*
X145839D01*
X122913Y7087D02*
X134894Y19067D01*
X120941Y25666D02*
X125984Y30709D01*
X173622Y116142D02*
X189370Y100394D01*
X146457Y116142D02*
X173622D01*
X56457Y123228D02*
X64291Y115394D01*
X229724Y100394D02*
X257087Y73032D01*
X189370Y100394D02*
X229724D01*
X219291Y120079D02*
X223425Y115945D01*
X237402D01*
X25787Y123228D02*
X56457D01*
X18504Y115945D02*
X25787Y123228D01*
D46*
X184646Y110236D02*
X196142D01*
X201299Y115394D01*
D47*
X165354Y30709D02*
D03*
D48*
X157480D02*
D03*
X149606D02*
D03*
X141732D02*
D03*
X133858D02*
D03*
X125984D02*
D03*
X118110D02*
D03*
X110236D02*
D03*
D49*
X152913Y7087D02*
D03*
D50*
X142913D02*
D03*
X132913D02*
D03*
X122913D02*
D03*
D51*
X201299Y135394D02*
D03*
X64291D02*
D03*
D52*
X211299D02*
D03*
X201299Y125394D02*
D03*
X211299D02*
D03*
X201299Y115394D02*
D03*
X211299D02*
D03*
X201299Y105394D02*
D03*
X211299D02*
D03*
X201299Y95394D02*
D03*
X211299D02*
D03*
X201299Y85394D02*
D03*
X211299D02*
D03*
X201299Y75394D02*
D03*
X211299D02*
D03*
X201299Y65394D02*
D03*
X211299D02*
D03*
X74291Y135394D02*
D03*
X64291Y125394D02*
D03*
X74291D02*
D03*
X64291Y115394D02*
D03*
X74291D02*
D03*
X64291Y105394D02*
D03*
X74291D02*
D03*
X64291Y95394D02*
D03*
X74291D02*
D03*
X64291Y85394D02*
D03*
X74291D02*
D03*
X64291Y75394D02*
D03*
X74291D02*
D03*
X64291Y65394D02*
D03*
X74291D02*
D03*
D53*
X94095Y159055D02*
D03*
X198031Y13780D02*
D03*
X77559D02*
D03*
X181496Y159055D02*
D03*
X19685Y94488D02*
D03*
X255906D02*
D03*
D54*
X206299Y157087D02*
D03*
Y45276D02*
D03*
X69291D02*
D03*
Y157087D02*
D03*
D55*
X120866Y23228D02*
D03*
X119291Y114567D02*
D03*
Y122441D02*
D03*
X118898Y129921D02*
D03*
Y137795D02*
D03*
X219685Y87008D02*
D03*
X55512Y116535D02*
D03*
X107480Y104724D02*
D03*
X127953Y91732D02*
D03*
X126772Y45669D02*
D03*
X132677Y46457D02*
D03*
Y91732D02*
D03*
X146457Y116142D02*
D03*
X184646Y110236D02*
D03*
M02*
