G04*
G04 #@! TF.GenerationSoftware,Altium Limited,Altium Designer,22.3.1 (43)*
G04*
G04 Layer_Color=8421504*
%FSLAX25Y25*%
%MOIN*%
G70*
G04*
G04 #@! TF.SameCoordinates,0A308F34-88F0-47DF-8954-E72232A12325*
G04*
G04*
G04 #@! TF.FilePolarity,Positive*
G04*
G01*
G75*
%ADD15R,0.05924X0.06127*%
%ADD16R,0.03543X0.05512*%
%ADD17R,0.04953X0.05756*%
G04:AMPARAMS|DCode=18|XSize=49.21mil|YSize=21.65mil|CornerRadius=0mil|HoleSize=0mil|Usage=FLASHONLY|Rotation=0.000|XOffset=0mil|YOffset=0mil|HoleType=Round|Shape=RoundedRectangle|*
%AMROUNDEDRECTD18*
21,1,0.04921,0.02165,0,0,0.0*
21,1,0.04921,0.02165,0,0,0.0*
1,1,0.00000,0.02461,-0.01083*
1,1,0.00000,-0.02461,-0.01083*
1,1,0.00000,-0.02461,0.01083*
1,1,0.00000,0.02461,0.01083*
%
%ADD18ROUNDEDRECTD18*%
G04:AMPARAMS|DCode=19|XSize=49.21mil|YSize=21.65mil|CornerRadius=0mil|HoleSize=0mil|Usage=FLASHONLY|Rotation=90.000|XOffset=0mil|YOffset=0mil|HoleType=Round|Shape=RoundedRectangle|*
%AMROUNDEDRECTD19*
21,1,0.04921,0.02165,0,0,90.0*
21,1,0.04921,0.02165,0,0,90.0*
1,1,0.00000,0.01083,0.02461*
1,1,0.00000,0.01083,-0.02461*
1,1,0.00000,-0.01083,-0.02461*
1,1,0.00000,-0.01083,0.02461*
%
%ADD19ROUNDEDRECTD19*%
%ADD20R,0.04134X0.05512*%
%ADD21R,0.04134X0.07087*%
G36*
X124507Y78339D02*
Y76871D01*
X119587D01*
Y79035D01*
X123812D01*
X124507Y78339D01*
D02*
G37*
G36*
X146089Y76515D02*
X146200Y76405D01*
X146260Y76260D01*
X146260Y76182D01*
X146260Y76182D01*
Y69882D01*
X146260Y69804D01*
X146200Y69659D01*
X146089Y69548D01*
X145944Y69489D01*
X145866Y69489D01*
X145866Y69489D01*
X139567Y69488D01*
X139489Y69488D01*
X139344Y69548D01*
X139233Y69659D01*
X139173Y69804D01*
X139173Y69882D01*
Y76181D01*
X139173Y76260D01*
X139233Y76404D01*
X139344Y76515D01*
X139489Y76575D01*
X139567Y76575D01*
X139567Y76575D01*
X145866Y76575D01*
X145944Y76575D01*
X146089Y76515D01*
D02*
G37*
G36*
X129724Y76575D02*
X129724Y76575D01*
X136023D01*
X136101Y76575D01*
X136246Y76515D01*
X136357Y76404D01*
X136417Y76259D01*
X136417Y76181D01*
X136417Y76181D01*
X136417Y69882D01*
X136417Y69804D01*
X136357Y69659D01*
X136247Y69548D01*
X136102Y69488D01*
X136023Y69488D01*
X129724D01*
X129646Y69488D01*
X129501Y69548D01*
X129390Y69659D01*
X129331Y69804D01*
X129331Y69882D01*
Y69882D01*
X129330Y76181D01*
X129330Y76259D01*
X129390Y76404D01*
X129501Y76515D01*
X129646Y76575D01*
X129724Y76575D01*
D02*
G37*
G36*
X146089Y66672D02*
X146200Y66562D01*
X146260Y66417D01*
X146260Y66338D01*
X146260Y66338D01*
X146260Y60039D01*
X146260Y59961D01*
X146200Y59816D01*
X146090Y59706D01*
X145945Y59646D01*
X145867Y59646D01*
X145867Y59646D01*
X139567Y59646D01*
X139489Y59646D01*
X139344Y59706D01*
X139234Y59816D01*
X139174Y59961D01*
X139174Y60040D01*
X139174Y60040D01*
X139173Y66338D01*
X139173Y66417D01*
X139233Y66562D01*
X139344Y66672D01*
X139489Y66732D01*
X139567Y66732D01*
X139567Y66732D01*
X145866Y66732D01*
X145945Y66732D01*
X146089Y66672D01*
D02*
G37*
G36*
X136247Y66672D02*
X136357Y66562D01*
X136417Y66417D01*
X136417Y66338D01*
X136417Y66338D01*
X136417Y60039D01*
X136417Y59961D01*
X136357Y59816D01*
X136247Y59705D01*
X136102Y59645D01*
X136023Y59645D01*
X136023D01*
X129725Y59645D01*
X129646Y59645D01*
X129501Y59705D01*
X129391Y59816D01*
X129331Y59961D01*
X129331Y60039D01*
X129331Y60039D01*
X129331Y66338D01*
X129331Y66417D01*
X129391Y66561D01*
X129501Y66672D01*
X129646Y66732D01*
X129725Y66732D01*
X129725Y66732D01*
X136023Y66732D01*
X136102Y66732D01*
X136247Y66672D01*
D02*
G37*
D15*
X124800Y105118D02*
D03*
X131893D02*
D03*
X95272Y137795D02*
D03*
X102365D02*
D03*
X95272Y126772D02*
D03*
X102365D02*
D03*
X95272Y115748D02*
D03*
X102365D02*
D03*
X95276Y104724D02*
D03*
X102368D02*
D03*
D16*
X250787Y176378D02*
D03*
X242913D02*
D03*
X250787Y11024D02*
D03*
X242913D02*
D03*
X24016Y10630D02*
D03*
X31890D02*
D03*
X24016Y176378D02*
D03*
X31890D02*
D03*
D17*
X234161Y86221D02*
D03*
X226468D02*
D03*
X234161Y96457D02*
D03*
X226468D02*
D03*
X42217Y100000D02*
D03*
X49909D02*
D03*
X42217Y89370D02*
D03*
X49909D02*
D03*
D18*
X153543Y58268D02*
D03*
Y63189D02*
D03*
Y68110D02*
D03*
Y73032D02*
D03*
Y77953D02*
D03*
X122047Y73032D02*
D03*
Y68110D02*
D03*
Y63189D02*
D03*
Y58268D02*
D03*
D19*
X147638Y83858D02*
D03*
X142717D02*
D03*
X137795D02*
D03*
X132874D02*
D03*
X127953D02*
D03*
Y52362D02*
D03*
X132874D02*
D03*
X137795D02*
D03*
X142717D02*
D03*
X147638D02*
D03*
D20*
X132087Y138189D02*
D03*
X124606D02*
D03*
X132087Y130315D02*
D03*
X124606D02*
D03*
X132087Y122441D02*
D03*
X124606D02*
D03*
X132087Y114567D02*
D03*
X124606D02*
D03*
D21*
X167421Y122047D02*
D03*
X177461D02*
D03*
X167421Y136221D02*
D03*
X177461D02*
D03*
M02*
